<svg width="22" height="22" fill="none" xmlns="http://www.w3.org/2000/svg"><path d="M19.83 6.093a5.586 5.586 0 00-1.222-1.779 5.7 5.7 0 00-4.005-1.629A5.738 5.738 0 0011 3.956a5.738 5.738 0 00-3.603-1.27 5.7 5.7 0 00-4.005 1.63A5.552 5.552 0 001.72 8.281c0 .716.146 1.461.436 2.22a9.94 9.94 0 001.035 1.955c.705 1.05 1.674 2.146 2.877 3.257a32.157 32.157 0 004.052 3.164l.51.327a.69.69 0 00.74 0l.51-.327a32.567 32.567 0 004.052-3.164c1.203-1.111 2.172-2.207 2.876-3.257a9.833 9.833 0 001.036-1.955c.29-.759.436-1.504.436-2.22a5.47 5.47 0 00-.449-2.189zM11 17.506s-7.648-4.901-7.648-9.224c0-2.189 1.81-3.964 4.045-3.964 1.57 0 2.933.877 3.603 2.157a4.057 4.057 0 013.603-2.157c2.234 0 4.045 1.775 4.045 3.964 0 4.323-7.648 9.224-7.648 9.224z" fill="#fff"/><path d="M14.603 4.318c-1.57 0-2.933.877-3.603 2.157a4.057 4.057 0 00-3.603-2.157c-2.234 0-4.045 1.775-4.045 3.964 0 4.323 7.648 9.224 7.648 9.224s7.648-4.901 7.648-9.224c0-2.189-1.81-3.964-4.045-3.964z" fill="#000" fill-opacity=".1"/></svg>