<svg width="117" height="55" fill="none" xmlns="http://www.w3.org/2000/svg"><mask id="a" fill="#fff"><path d="M67.103 21.81c0 .425.34.769.76.769h1.394c.42 0 .76-.344.76-.768a.764.764 0 00-.76-.768h-1.394c-.42 0-.76.344-.76.768z"/><path d="M77.055 25.974c-.156 0-.309.014-.458.04l-5.01-8.399c.02-.024.04-.05.057-.078l3.364-5.4a.775.775 0 00.042-.742.76.76 0 00-.601-.43l-5.519-.62.627-5.574a.772.772 0 00-.281-.687.753.753 0 00-.725-.125L63.31 5.813 61.48.515a.755.755 0 00-1.256-.29L56.304 4.2 52.381.226a.755.755 0 00-1.255.289l-1.83 5.298-5.241-1.854a.754.754 0 00-.725.125.772.772 0 00-.282.687l.627 5.575-5.519.62a.76.76 0 00-.6.43.775.775 0 00.041.742l2.959 4.748-4.702 2.984a.77.77 0 000 1.3l4.702 2.984-2.959 4.749a.775.775 0 00-.022.78.76.76 0 00.665.397l36.474.042a2.716 2.716 0 002.34 1.35c1.5 0 2.721-1.233 2.721-2.749s-1.22-2.75-2.72-2.75zm-2.717 2.611l-13.55-.015c-1.794-6.142 2.649-10.919 7.833-12.953l6.605 11.073a2.756 2.756 0 00-.888 1.895zm-32.09-4.263a.775.775 0 00-.239-1.06l-4.32-2.742 4.32-2.742a.775.775 0 00.239-1.06l-2.717-4.361 5.07-.57a.758.758 0 00.51-.284.773.773 0 00.161-.566l-.575-5.124 4.815 1.704a.754.754 0 00.969-.472l1.681-4.867 3.603 3.652a.756.756 0 001.077 0l3.602-3.652 1.681 4.867a.756.756 0 00.969.472l4.816-1.704-.576 5.125a.774.774 0 00.161.565c.126.16.31.262.51.284l5.07.57-2.362 3.791-1.114-1.867a.757.757 0 00-.9-.33c-3.485 1.22-6.348 3.35-8.06 5.998-1.706 2.637-2.192 5.598-1.428 8.619l-19.594-.023 2.631-4.223zm34.807 5.614c-.661 0-1.2-.544-1.2-1.213s.539-1.213 1.2-1.213c.662 0 1.201.544 1.201 1.213 0 .67-.539 1.213-1.2 1.213zM15.033 54.482c.042 0 .064.043.064.13 0 .086-.022.13-.064.13-.499 0-.897-.008-1.196-.023l-1.644-.021-1.922.021c-.256.015-.605.022-1.046.022-.043 0-.065-.043-.065-.13 0-.086.022-.129.065-.129.526 0 .91-.036 1.153-.108.242-.072.405-.208.49-.41.086-.201.129-.525.129-.97V48.03H4.1v4.963c0 .432.042.755.128.971.085.202.249.338.491.41.242.072.626.108 1.153.108.029 0 .043.043.043.13 0 .086-.014.13-.043.13-.498 0-.897-.008-1.196-.023l-1.857-.021-1.602.021a23.76 23.76 0 01-1.174.022c-.029 0-.043-.043-.043-.13 0-.086.014-.129.043-.129.498 0 .86-.036 1.089-.108a.713.713 0 00.47-.41c.085-.216.128-.54.128-.97v-9.992c0-.431-.043-.748-.129-.95a.713.713 0 00-.47-.41c-.213-.086-.562-.129-1.046-.129-.042 0-.064-.043-.064-.13 0-.086.022-.129.064-.129l1.153.022a37.81 37.81 0 001.58.043c.542 0 1.168-.015 1.88-.043l1.174-.022c.029 0 .043.043.043.13 0 .086-.014.13-.043.13-.512 0-.89.042-1.132.129a.85.85 0 00-.512.453c-.086.201-.128.518-.128.95v4.38h6.897v-4.38c0-.432-.043-.749-.128-.95a.776.776 0 00-.491-.453c-.242-.087-.627-.13-1.153-.13-.043 0-.065-.043-.065-.13 0-.086.022-.129.065-.129l1.046.022c.712.028 1.352.043 1.922.043.384 0 .932-.015 1.644-.043l1.196-.022c.042 0 .064.043.064.13 0 .086-.022.13-.064.13-.484 0-.848.042-1.09.129a.713.713 0 00-.47.41c-.07.201-.106.518-.106.95v9.99c0 .432.036.755.107.971a.713.713 0 00.47.41c.227.072.59.108 1.088.108zM26.3 51.31c0-.029.028-.043.085-.043.043 0 .079.014.107.043.043.014.064.029.064.043a24.522 24.522 0 00-.213 3.064.433.433 0 01-.064.26c-.043.042-.128.064-.257.064h-9.438c-.042 0-.064-.043-.064-.13 0-.086.022-.129.064-.129.456 0 .783-.036.983-.108a.644.644 0 00.427-.41c.07-.216.106-.54.106-.97v-9.992c0-.431-.035-.748-.106-.95a.644.644 0 00-.427-.41c-.214-.086-.541-.129-.983-.129-.042 0-.064-.043-.064-.13 0-.086.022-.129.064-.129h9.054c.142 0 .213.065.213.194l.043 2.87c0 .03-.042.05-.128.065-.071.014-.114 0-.128-.043-.228-.834-.612-1.453-1.153-1.856s-1.253-.604-2.135-.604h-.641c-.427 0-.74.093-.94.28-.199.188-.298.475-.298.864v4.402h1.772c.826 0 1.459-.144 1.9-.432.442-.288.662-.69.662-1.208 0-.043.036-.065.107-.065.085 0 .128.022.128.065l-.021 1.942.021 1.036c.029.489.043.877.043 1.165 0 .029-.043.043-.128.043-.086 0-.128-.014-.128-.043 0-.59-.228-1.05-.684-1.381-.441-.345-1.082-.518-1.922-.518h-1.75v4.877c0 .417.078.726.234.928.157.201.406.302.748.302h.704c1.11 0 2-.23 2.67-.69.669-.461 1.16-1.173 1.473-2.137zm8.152 3.517c-.456 0-.997-.021-1.623-.064a42.084 42.084 0 00-.854-.044 25.522 25.522 0 00-1.11-.021l-1.58.021c-.285.015-.67.022-1.154.022-.028 0-.043-.043-.043-.13 0-.086.015-.129.043-.129.456 0 .79-.036 1.004-.108a.644.644 0 00.427-.41c.085-.216.128-.54.128-.97v-9.992c0-.431-.043-.748-.128-.95a.644.644 0 00-.427-.41c-.2-.086-.52-.129-.961-.129-.043 0-.064-.043-.064-.13 0-.086.021-.129.064-.129l1.132.022c.654.028 1.174.043 1.558.043.584 0 1.182-.022 1.794-.065a46.55 46.55 0 011.495-.043c1.438 0 2.712.288 3.822.863 1.124.576 1.993 1.36 2.605 2.352.612.993.918 2.108.918 3.345 0 1.395-.32 2.633-.96 3.712a6.57 6.57 0 01-2.563 2.481c-1.068.576-2.242.863-3.523.863zm-.214-.496c.911 0 1.715-.23 2.413-.69.697-.475 1.238-1.173 1.623-2.094.398-.92.598-2.02.598-3.301 0-1.223-.185-2.33-.556-3.323-.37-1.007-.896-1.799-1.58-2.374a3.57 3.57 0 00-2.37-.863c-.882 0-1.487.086-1.815.259-.327.172-.49.54-.49 1.1v9.71c0 .576.149.986.447 1.23.3.231.876.346 1.73.346zM51.28 55c-1.566 0-2.933-.302-4.1-.906-1.168-.605-2.057-1.425-2.67-2.46-.611-1.05-.918-2.216-.918-3.496 0-1.381.35-2.611 1.047-3.69.711-1.093 1.68-1.935 2.904-2.525 1.238-.604 2.619-.906 4.142-.906.67 0 1.346.057 2.029.172.683.101 1.231.238 1.644.41.128.044.206.101.235.173.042.058.071.166.085.324l.278 3c0 .042-.036.071-.107.086-.071.014-.12-.008-.15-.065-.498-1.108-1.188-1.971-2.07-2.59-.869-.618-1.865-.928-2.99-.928-1.452 0-2.563.511-3.331 1.533-.755 1.021-1.132 2.416-1.132 4.186 0 1.424.242 2.697.726 3.82.484 1.107 1.153 1.97 2.007 2.589a4.968 4.968 0 002.904.906c.584 0 1.032-.065 1.346-.194.313-.13.54-.381.683-.755.142-.374.213-.928.213-1.662 0-.748-.042-1.266-.128-1.554a.846.846 0 00-.555-.604c-.27-.1-.747-.15-1.43-.15-.086 0-.129-.058-.129-.173 0-.044.007-.08.022-.108.028-.044.057-.065.085-.065a51.62 51.62 0 002.925.108c.727 0 1.48-.022 2.264-.065.028 0 .05.022.064.065.028.029.043.057.043.086 0 .1-.036.151-.107.151-.256-.014-.434.036-.534.151-.1.1-.164.317-.192.648-.029.316-.043.892-.043 1.726 0 .647.021 1.108.064 1.38.057.274.086.447.086.519 0 .086-.022.144-.064.172a.488.488 0 01-.193.087c-1.836.403-3.487.604-4.953.604zm17.205-3.69c0-.029.028-.043.085-.043.043 0 .078.014.107.043.043.014.064.029.064.043a24.522 24.522 0 00-.214 3.064.433.433 0 01-.064.26c-.042.042-.128.064-.256.064H58.77c-.043 0-.064-.043-.064-.13 0-.086.021-.129.064-.129.456 0 .783-.036.982-.108a.644.644 0 00.427-.41c.072-.216.107-.54.107-.97v-9.992c0-.431-.035-.748-.107-.95a.644.644 0 00-.427-.41c-.213-.086-.54-.129-.982-.129-.043 0-.064-.043-.064-.13 0-.086.021-.129.064-.129h9.054c.142 0 .213.065.213.194l.043 2.87c0 .03-.043.05-.128.065-.071.014-.114 0-.128-.043-.228-.834-.612-1.453-1.153-1.856s-1.253-.604-2.136-.604h-.64c-.427 0-.74.093-.94.28-.199.188-.299.475-.299.864v4.402h1.773c.825 0 1.459-.144 1.9-.432.441-.288.662-.69.662-1.208 0-.043.036-.065.107-.065.085 0 .128.022.128.065l-.021 1.942.02 1.036c.03.489.044.877.044 1.165 0 .029-.043.043-.129.043-.085 0-.128-.014-.128-.043 0-.59-.227-1.05-.683-1.381-.441-.345-1.082-.518-1.922-.518h-1.75v4.877c0 .417.078.726.234.928.157.201.406.302.748.302h.704c1.11 0 2-.23 2.67-.69.668-.461 1.16-1.173 1.473-2.137zm16.821 3.172c.042 0 .064.043.064.13 0 .086-.022.13-.064.13-.498 0-.897-.008-1.196-.023l-1.644-.021-1.922.021c-.256.015-.605.022-1.046.022-.043 0-.064-.043-.064-.13 0-.086.021-.129.064-.129.526 0 .91-.036 1.153-.108.242-.072.406-.208.49-.41.086-.201.129-.525.129-.97V48.03h-6.897v4.963c0 .432.043.755.128.971.085.202.25.338.491.41.242.072.627.108 1.153.108.029 0 .043.043.043.13 0 .086-.014.13-.043.13-.498 0-.896-.008-1.195-.023l-1.858-.021-1.602.021c-.284.015-.676.022-1.174.022-.029 0-.043-.043-.043-.13 0-.086.014-.129.043-.129.498 0 .861-.036 1.089-.108a.713.713 0 00.47-.41c.085-.216.128-.54.128-.97v-9.992c0-.431-.043-.748-.128-.95a.713.713 0 00-.47-.41c-.214-.086-.562-.129-1.046-.129-.043 0-.064-.043-.064-.13 0-.086.02-.129.064-.129l1.153.022c.654.028 1.181.043 1.58.043.54 0 1.167-.015 1.879-.043l1.174-.022c.029 0 .043.043.043.13 0 .086-.014.13-.043.13-.512 0-.89.042-1.131.129a.851.851 0 00-.513.453c-.085.201-.128.518-.128.95v4.38h6.897v-4.38c0-.432-.043-.749-.128-.95a.776.776 0 00-.491-.453c-.242-.087-.627-.13-1.153-.13-.043 0-.064-.043-.064-.13 0-.086.021-.129.064-.129l1.046.022c.712.028 1.352.043 1.922.043.384 0 .932-.015 1.644-.043l1.196-.022c.042 0 .064.043.064.13 0 .086-.022.13-.064.13-.484 0-.847.042-1.09.129a.713.713 0 00-.469.41c-.071.201-.107.518-.107.95v9.99c0 .432.036.755.107.971a.713.713 0 00.47.41c.228.072.59.108 1.089.108zm8.491.518c-1.324 0-2.505-.31-3.544-.928a6.6 6.6 0 01-2.392-2.546 7.574 7.574 0 01-.833-3.518c0-1.481.37-2.747 1.11-3.797a6.962 6.962 0 012.84-2.396c1.168-.532 2.357-.798 3.567-.798 1.352 0 2.54.323 3.566.97a6.323 6.323 0 012.348 2.526 7.045 7.045 0 01.833 3.344 6.66 6.66 0 01-1.025 3.604 7.37 7.37 0 01-2.754 2.59 7.522 7.522 0 01-3.716.949zm.705-.54c.797 0 1.509-.23 2.135-.69.64-.475 1.139-1.158 1.495-2.05.356-.906.534-1.985.534-3.237 0-1.323-.2-2.503-.598-3.539-.399-1.05-.975-1.87-1.73-2.46-.754-.59-1.637-.885-2.647-.885-1.296 0-2.292.497-2.99 1.49-.697.978-1.046 2.352-1.046 4.121 0 1.395.206 2.647.619 3.755.427 1.093 1.004 1.949 1.73 2.568.74.618 1.573.928 2.498.928zm16.562.54c-1.566 0-2.933-.302-4.1-.906-1.167-.605-2.057-1.425-2.669-2.46-.612-1.05-.918-2.216-.918-3.496 0-1.381.349-2.611 1.046-3.69.712-1.093 1.68-1.935 2.904-2.525 1.239-.604 2.619-.906 4.143-.906.669 0 1.345.057 2.028.172.683.101 1.231.238 1.644.41.128.044.207.101.235.173.043.058.071.166.086.324l.277 3c0 .042-.035.071-.107.086-.071.014-.121-.008-.149-.065-.498-1.108-1.189-1.971-2.071-2.59-.869-.618-1.865-.928-2.99-.928-1.452 0-2.562.511-3.331 1.533-.754 1.021-1.132 2.416-1.132 4.186 0 1.424.242 2.697.726 3.82.484 1.107 1.154 1.97 2.008 2.589a4.966 4.966 0 002.904.906c.583 0 1.032-.065 1.345-.194.313-.13.541-.381.683-.755.143-.374.214-.928.214-1.662 0-.748-.043-1.266-.128-1.554a.848.848 0 00-.556-.604c-.27-.1-.747-.15-1.43-.15-.086 0-.128-.058-.128-.173 0-.044.007-.08.021-.108.029-.044.057-.065.085-.065a51.57 51.57 0 002.926.108c.726 0 1.48-.022 2.263-.065.029 0 .05.022.064.065.029.029.043.057.043.086 0 .1-.036.151-.107.151-.256-.014-.434.036-.534.151-.099.1-.163.317-.192.648-.028.316-.042.892-.042 1.726 0 .647.021 1.108.064 1.38.057.274.085.447.085.519 0 .086-.021.144-.064.172a.496.496 0 01-.192.087c-1.837.403-3.488.604-4.954.604zM83.571 17.654h30.361v1.278h-30.36v-1.278zm-82.228 0H30.44v1.278H1.343v-1.278z"/></mask><path d="M67.103 21.81c0 .425.34.769.76.769h1.394c.42 0 .76-.344.76-.768a.764.764 0 00-.76-.768h-1.394c-.42 0-.76.344-.76.768z" fill="#195557"/><path d="M77.055 25.974c-.156 0-.309.014-.458.04l-5.01-8.399c.02-.024.04-.05.057-.078l3.364-5.4a.775.775 0 00.042-.742.76.76 0 00-.601-.43l-5.519-.62.627-5.574a.772.772 0 00-.281-.687.753.753 0 00-.725-.125L63.31 5.813 61.48.515a.755.755 0 00-1.256-.29L56.304 4.2 52.381.226a.755.755 0 00-1.255.289l-1.83 5.298-5.241-1.854a.754.754 0 00-.725.125.772.772 0 00-.282.687l.627 5.575-5.519.62a.76.76 0 00-.6.43.775.775 0 00.041.742l2.959 4.748-4.702 2.984a.77.77 0 000 1.3l4.702 2.984-2.959 4.749a.775.775 0 00-.022.78.76.76 0 00.665.397l36.474.042a2.716 2.716 0 002.34 1.35c1.5 0 2.721-1.233 2.721-2.749s-1.22-2.75-2.72-2.75zm-2.717 2.611l-13.55-.015c-1.794-6.142 2.649-10.919 7.833-12.953l6.605 11.073a2.756 2.756 0 00-.888 1.895zm-32.09-4.263a.775.775 0 00-.239-1.06l-4.32-2.742 4.32-2.742a.775.775 0 00.239-1.06l-2.717-4.361 5.07-.57a.758.758 0 00.51-.284.773.773 0 00.161-.566l-.575-5.124 4.815 1.704a.754.754 0 00.969-.472l1.681-4.867 3.603 3.652a.756.756 0 001.077 0l3.602-3.652 1.681 4.867a.756.756 0 00.969.472l4.816-1.704-.576 5.125a.774.774 0 00.161.565c.126.16.31.262.51.284l5.07.57-2.362 3.791-1.114-1.867a.757.757 0 00-.9-.33c-3.485 1.22-6.348 3.35-8.06 5.998-1.706 2.637-2.192 5.598-1.428 8.619l-19.594-.023 2.631-4.223zm34.807 5.614c-.661 0-1.2-.544-1.2-1.213s.539-1.213 1.2-1.213c.662 0 1.201.544 1.201 1.213 0 .67-.539 1.213-1.2 1.213zM15.033 54.482c.042 0 .064.043.064.13 0 .086-.022.13-.064.13-.499 0-.897-.008-1.196-.023l-1.644-.021-1.922.021c-.256.015-.605.022-1.046.022-.043 0-.065-.043-.065-.13 0-.086.022-.129.065-.129.526 0 .91-.036 1.153-.108.242-.072.405-.208.49-.41.086-.201.129-.525.129-.97V48.03H4.1v4.963c0 .432.042.755.128.971.085.202.249.338.491.41.242.072.626.108 1.153.108.029 0 .043.043.043.13 0 .086-.014.13-.043.13-.498 0-.897-.008-1.196-.023l-1.857-.021-1.602.021a23.76 23.76 0 01-1.174.022c-.029 0-.043-.043-.043-.13 0-.086.014-.129.043-.129.498 0 .86-.036 1.089-.108a.713.713 0 00.47-.41c.085-.216.128-.54.128-.97v-9.992c0-.431-.043-.748-.129-.95a.713.713 0 00-.47-.41c-.213-.086-.562-.129-1.046-.129-.042 0-.064-.043-.064-.13 0-.086.022-.129.064-.129l1.153.022a37.81 37.81 0 001.58.043c.542 0 1.168-.015 1.88-.043l1.174-.022c.029 0 .043.043.043.13 0 .086-.014.13-.043.13-.512 0-.89.042-1.132.129a.85.85 0 00-.512.453c-.086.201-.128.518-.128.95v4.38h6.897v-4.38c0-.432-.043-.749-.128-.95a.776.776 0 00-.491-.453c-.242-.087-.627-.13-1.153-.13-.043 0-.065-.043-.065-.13 0-.086.022-.129.065-.129l1.046.022c.712.028 1.352.043 1.922.043.384 0 .932-.015 1.644-.043l1.196-.022c.042 0 .064.043.064.13 0 .086-.022.13-.064.13-.484 0-.848.042-1.09.129a.713.713 0 00-.47.41c-.07.201-.106.518-.106.95v9.99c0 .432.036.755.107.971a.713.713 0 00.47.41c.227.072.59.108 1.088.108zM26.3 51.31c0-.029.028-.043.085-.043.043 0 .079.014.107.043.043.014.064.029.064.043a24.522 24.522 0 00-.213 3.064.433.433 0 01-.064.26c-.043.042-.128.064-.257.064h-9.438c-.042 0-.064-.043-.064-.13 0-.086.022-.129.064-.129.456 0 .783-.036.983-.108a.644.644 0 00.427-.41c.07-.216.106-.54.106-.97v-9.992c0-.431-.035-.748-.106-.95a.644.644 0 00-.427-.41c-.214-.086-.541-.129-.983-.129-.042 0-.064-.043-.064-.13 0-.086.022-.129.064-.129h9.054c.142 0 .213.065.213.194l.043 2.87c0 .03-.042.05-.128.065-.071.014-.114 0-.128-.043-.228-.834-.612-1.453-1.153-1.856s-1.253-.604-2.135-.604h-.641c-.427 0-.74.093-.94.28-.199.188-.298.475-.298.864v4.402h1.772c.826 0 1.459-.144 1.9-.432.442-.288.662-.69.662-1.208 0-.043.036-.065.107-.065.085 0 .128.022.128.065l-.021 1.942.021 1.036c.029.489.043.877.043 1.165 0 .029-.043.043-.128.043-.086 0-.128-.014-.128-.043 0-.59-.228-1.05-.684-1.381-.441-.345-1.082-.518-1.922-.518h-1.75v4.877c0 .417.078.726.234.928.157.201.406.302.748.302h.704c1.11 0 2-.23 2.67-.69.669-.461 1.16-1.173 1.473-2.137zm8.152 3.517c-.456 0-.997-.021-1.623-.064a42.084 42.084 0 00-.854-.044 25.522 25.522 0 00-1.11-.021l-1.58.021c-.285.015-.67.022-1.154.022-.028 0-.043-.043-.043-.13 0-.086.015-.129.043-.129.456 0 .79-.036 1.004-.108a.644.644 0 00.427-.41c.085-.216.128-.54.128-.97v-9.992c0-.431-.043-.748-.128-.95a.644.644 0 00-.427-.41c-.2-.086-.52-.129-.961-.129-.043 0-.064-.043-.064-.13 0-.086.021-.129.064-.129l1.132.022c.654.028 1.174.043 1.558.043.584 0 1.182-.022 1.794-.065a46.55 46.55 0 011.495-.043c1.438 0 2.712.288 3.822.863 1.124.576 1.993 1.36 2.605 2.352.612.993.918 2.108.918 3.345 0 1.395-.32 2.633-.96 3.712a6.57 6.57 0 01-2.563 2.481c-1.068.576-2.242.863-3.523.863zm-.214-.496c.911 0 1.715-.23 2.413-.69.697-.475 1.238-1.173 1.623-2.094.398-.92.598-2.02.598-3.301 0-1.223-.185-2.33-.556-3.323-.37-1.007-.896-1.799-1.58-2.374a3.57 3.57 0 00-2.37-.863c-.882 0-1.487.086-1.815.259-.327.172-.49.54-.49 1.1v9.71c0 .576.149.986.447 1.23.3.231.876.346 1.73.346zM51.28 55c-1.566 0-2.933-.302-4.1-.906-1.168-.605-2.057-1.425-2.67-2.46-.611-1.05-.918-2.216-.918-3.496 0-1.381.35-2.611 1.047-3.69.711-1.093 1.68-1.935 2.904-2.525 1.238-.604 2.619-.906 4.142-.906.67 0 1.346.057 2.029.172.683.101 1.231.238 1.644.41.128.044.206.101.235.173.042.058.071.166.085.324l.278 3c0 .042-.036.071-.107.086-.071.014-.12-.008-.15-.065-.498-1.108-1.188-1.971-2.07-2.59-.869-.618-1.865-.928-2.99-.928-1.452 0-2.563.511-3.331 1.533-.755 1.021-1.132 2.416-1.132 4.186 0 1.424.242 2.697.726 3.82.484 1.107 1.153 1.97 2.007 2.589a4.968 4.968 0 002.904.906c.584 0 1.032-.065 1.346-.194.313-.13.54-.381.683-.755.142-.374.213-.928.213-1.662 0-.748-.042-1.266-.128-1.554a.846.846 0 00-.555-.604c-.27-.1-.747-.15-1.43-.15-.086 0-.129-.058-.129-.173 0-.044.007-.08.022-.108.028-.044.057-.065.085-.065a51.62 51.62 0 002.925.108c.727 0 1.48-.022 2.264-.065.028 0 .05.022.064.065.028.029.043.057.043.086 0 .1-.036.151-.107.151-.256-.014-.434.036-.534.151-.1.1-.164.317-.192.648-.029.316-.043.892-.043 1.726 0 .647.021 1.108.064 1.38.057.274.086.447.086.519 0 .086-.022.144-.064.172a.488.488 0 01-.193.087c-1.836.403-3.487.604-4.953.604zm17.205-3.69c0-.029.028-.043.085-.043.043 0 .078.014.107.043.043.014.064.029.064.043a24.522 24.522 0 00-.214 3.064.433.433 0 01-.064.26c-.042.042-.128.064-.256.064H58.77c-.043 0-.064-.043-.064-.13 0-.086.021-.129.064-.129.456 0 .783-.036.982-.108a.644.644 0 00.427-.41c.072-.216.107-.54.107-.97v-9.992c0-.431-.035-.748-.107-.95a.644.644 0 00-.427-.41c-.213-.086-.54-.129-.982-.129-.043 0-.064-.043-.064-.13 0-.086.021-.129.064-.129h9.054c.142 0 .213.065.213.194l.043 2.87c0 .03-.043.05-.128.065-.071.014-.114 0-.128-.043-.228-.834-.612-1.453-1.153-1.856s-1.253-.604-2.136-.604h-.64c-.427 0-.74.093-.94.28-.199.188-.299.475-.299.864v4.402h1.773c.825 0 1.459-.144 1.9-.432.441-.288.662-.69.662-1.208 0-.043.036-.065.107-.065.085 0 .128.022.128.065l-.021 1.942.02 1.036c.03.489.044.877.044 1.165 0 .029-.043.043-.129.043-.085 0-.128-.014-.128-.043 0-.59-.227-1.05-.683-1.381-.441-.345-1.082-.518-1.922-.518h-1.75v4.877c0 .417.078.726.234.928.157.201.406.302.748.302h.704c1.11 0 2-.23 2.67-.69.668-.461 1.16-1.173 1.473-2.137zm16.821 3.172c.042 0 .064.043.064.13 0 .086-.022.13-.064.13-.498 0-.897-.008-1.196-.023l-1.644-.021-1.922.021c-.256.015-.605.022-1.046.022-.043 0-.064-.043-.064-.13 0-.086.021-.129.064-.129.526 0 .91-.036 1.153-.108.242-.072.406-.208.49-.41.086-.201.129-.525.129-.97V48.03h-6.897v4.963c0 .432.043.755.128.971.085.202.25.338.491.41.242.072.627.108 1.153.108.029 0 .043.043.043.13 0 .086-.014.13-.043.13-.498 0-.896-.008-1.195-.023l-1.858-.021-1.602.021c-.284.015-.676.022-1.174.022-.029 0-.043-.043-.043-.13 0-.086.014-.129.043-.129.498 0 .861-.036 1.089-.108a.713.713 0 00.47-.41c.085-.216.128-.54.128-.97v-9.992c0-.431-.043-.748-.128-.95a.713.713 0 00-.47-.41c-.214-.086-.562-.129-1.046-.129-.043 0-.064-.043-.064-.13 0-.086.02-.129.064-.129l1.153.022c.654.028 1.181.043 1.58.043.54 0 1.167-.015 1.879-.043l1.174-.022c.029 0 .043.043.043.13 0 .086-.014.13-.043.13-.512 0-.89.042-1.131.129a.851.851 0 00-.513.453c-.085.201-.128.518-.128.95v4.38h6.897v-4.38c0-.432-.043-.749-.128-.95a.776.776 0 00-.491-.453c-.242-.087-.627-.13-1.153-.13-.043 0-.064-.043-.064-.13 0-.086.021-.129.064-.129l1.046.022c.712.028 1.352.043 1.922.043.384 0 .932-.015 1.644-.043l1.196-.022c.042 0 .064.043.064.13 0 .086-.022.13-.064.13-.484 0-.847.042-1.09.129a.713.713 0 00-.469.41c-.071.201-.107.518-.107.95v9.99c0 .432.036.755.107.971a.713.713 0 00.47.41c.228.072.59.108 1.089.108zm8.491.518c-1.324 0-2.505-.31-3.544-.928a6.6 6.6 0 01-2.392-2.546 7.574 7.574 0 01-.833-3.518c0-1.481.37-2.747 1.11-3.797a6.962 6.962 0 012.84-2.396c1.168-.532 2.357-.798 3.567-.798 1.352 0 2.54.323 3.566.97a6.323 6.323 0 012.348 2.526 7.045 7.045 0 01.833 3.344 6.66 6.66 0 01-1.025 3.604 7.37 7.37 0 01-2.754 2.59 7.522 7.522 0 01-3.716.949zm.705-.54c.797 0 1.509-.23 2.135-.69.64-.475 1.139-1.158 1.495-2.05.356-.906.534-1.985.534-3.237 0-1.323-.2-2.503-.598-3.539-.399-1.05-.975-1.87-1.73-2.46-.754-.59-1.637-.885-2.647-.885-1.296 0-2.292.497-2.99 1.49-.697.978-1.046 2.352-1.046 4.121 0 1.395.206 2.647.619 3.755.427 1.093 1.004 1.949 1.73 2.568.74.618 1.573.928 2.498.928zm16.562.54c-1.566 0-2.933-.302-4.1-.906-1.167-.605-2.057-1.425-2.669-2.46-.612-1.05-.918-2.216-.918-3.496 0-1.381.349-2.611 1.046-3.69.712-1.093 1.68-1.935 2.904-2.525 1.239-.604 2.619-.906 4.143-.906.669 0 1.345.057 2.028.172.683.101 1.231.238 1.644.41.128.044.207.101.235.173.043.058.071.166.086.324l.277 3c0 .042-.035.071-.107.086-.071.014-.121-.008-.149-.065-.498-1.108-1.189-1.971-2.071-2.59-.869-.618-1.865-.928-2.99-.928-1.452 0-2.562.511-3.331 1.533-.754 1.021-1.132 2.416-1.132 4.186 0 1.424.242 2.697.726 3.82.484 1.107 1.154 1.97 2.008 2.589a4.966 4.966 0 002.904.906c.583 0 1.032-.065 1.345-.194.313-.13.541-.381.683-.755.143-.374.214-.928.214-1.662 0-.748-.043-1.266-.128-1.554a.848.848 0 00-.556-.604c-.27-.1-.747-.15-1.43-.15-.086 0-.128-.058-.128-.173 0-.044.007-.08.021-.108.029-.044.057-.065.085-.065a51.57 51.57 0 002.926.108c.726 0 1.48-.022 2.263-.065.029 0 .05.022.064.065.029.029.043.057.043.086 0 .1-.036.151-.107.151-.256-.014-.434.036-.534.151-.099.1-.163.317-.192.648-.028.316-.042.892-.042 1.726 0 .647.021 1.108.064 1.38.057.274.085.447.085.519 0 .086-.021.144-.064.172a.496.496 0 01-.192.087c-1.837.403-3.488.604-4.954.604zM83.571 17.654h30.361v1.278h-30.36v-1.278zm-82.228 0H30.44v1.278H1.343v-1.278z" fill="#195557"/><path d="M67.103 21.81c0 .425.34.769.76.769h1.394c.42 0 .76-.344.76-.768a.764.764 0 00-.76-.768h-1.394c-.42 0-.76.344-.76.768z" stroke="#000" stroke-width="2" mask="url(#a)"/><path d="M77.055 25.974c-.156 0-.309.014-.458.04l-5.01-8.399c.02-.024.04-.05.057-.078l3.364-5.4a.775.775 0 00.042-.742.76.76 0 00-.601-.43l-5.519-.62.627-5.574a.772.772 0 00-.281-.687.753.753 0 00-.725-.125L63.31 5.813 61.48.515a.755.755 0 00-1.256-.29L56.304 4.2 52.381.226a.755.755 0 00-1.255.289l-1.83 5.298-5.241-1.854a.754.754 0 00-.725.125.772.772 0 00-.282.687l.627 5.575-5.519.62a.76.76 0 00-.6.43.775.775 0 00.041.742l2.959 4.748-4.702 2.984a.77.77 0 000 1.3l4.702 2.984-2.959 4.749a.775.775 0 00-.022.78.76.76 0 00.665.397l36.474.042a2.716 2.716 0 002.34 1.35c1.5 0 2.721-1.233 2.721-2.749s-1.22-2.75-2.72-2.75zm-2.717 2.611l-13.55-.015c-1.794-6.142 2.649-10.919 7.833-12.953l6.605 11.073a2.756 2.756 0 00-.888 1.895zm-32.09-4.263a.775.775 0 00-.239-1.06l-4.32-2.742 4.32-2.742a.775.775 0 00.239-1.06l-2.717-4.361 5.07-.57a.758.758 0 00.51-.284.773.773 0 00.161-.566l-.575-5.124 4.815 1.704a.754.754 0 00.969-.472l1.681-4.867 3.603 3.652a.756.756 0 001.077 0l3.602-3.652 1.681 4.867a.756.756 0 00.969.472l4.816-1.704-.576 5.125a.774.774 0 00.161.565c.126.16.31.262.51.284l5.07.57-2.362 3.791-1.114-1.867a.757.757 0 00-.9-.33c-3.485 1.22-6.348 3.35-8.06 5.998-1.706 2.637-2.192 5.598-1.428 8.619l-19.594-.023 2.631-4.223zm34.807 5.614c-.661 0-1.2-.544-1.2-1.213s.539-1.213 1.2-1.213c.662 0 1.201.544 1.201 1.213 0 .67-.539 1.213-1.2 1.213zM15.033 54.482c.042 0 .064.043.064.13 0 .086-.022.13-.064.13-.499 0-.897-.008-1.196-.023l-1.644-.021-1.922.021c-.256.015-.605.022-1.046.022-.043 0-.065-.043-.065-.13 0-.086.022-.129.065-.129.526 0 .91-.036 1.153-.108.242-.072.405-.208.49-.41.086-.201.129-.525.129-.97V48.03H4.1v4.963c0 .432.042.755.128.971.085.202.249.338.491.41.242.072.626.108 1.153.108.029 0 .043.043.043.13 0 .086-.014.13-.043.13-.498 0-.897-.008-1.196-.023l-1.857-.021-1.602.021a23.76 23.76 0 01-1.174.022c-.029 0-.043-.043-.043-.13 0-.086.014-.129.043-.129.498 0 .86-.036 1.089-.108a.713.713 0 00.47-.41c.085-.216.128-.54.128-.97v-9.992c0-.431-.043-.748-.129-.95a.713.713 0 00-.47-.41c-.213-.086-.562-.129-1.046-.129-.042 0-.064-.043-.064-.13 0-.086.022-.129.064-.129l1.153.022a37.81 37.81 0 001.58.043c.542 0 1.168-.015 1.88-.043l1.174-.022c.029 0 .043.043.043.13 0 .086-.014.13-.043.13-.512 0-.89.042-1.132.129a.85.85 0 00-.512.453c-.086.201-.128.518-.128.95v4.38h6.897v-4.38c0-.432-.043-.749-.128-.95a.776.776 0 00-.491-.453c-.242-.087-.627-.13-1.153-.13-.043 0-.065-.043-.065-.13 0-.086.022-.129.065-.129l1.046.022c.712.028 1.352.043 1.922.043.384 0 .932-.015 1.644-.043l1.196-.022c.042 0 .064.043.064.13 0 .086-.022.13-.064.13-.484 0-.848.042-1.09.129a.713.713 0 00-.47.41c-.07.201-.106.518-.106.95v9.99c0 .432.036.755.107.971a.713.713 0 00.47.41c.227.072.59.108 1.088.108zM26.3 51.31c0-.029.028-.043.085-.043.043 0 .079.014.107.043.043.014.064.029.064.043a24.522 24.522 0 00-.213 3.064.433.433 0 01-.064.26c-.043.042-.128.064-.257.064h-9.438c-.042 0-.064-.043-.064-.13 0-.086.022-.129.064-.129.456 0 .783-.036.983-.108a.644.644 0 00.427-.41c.07-.216.106-.54.106-.97v-9.992c0-.431-.035-.748-.106-.95a.644.644 0 00-.427-.41c-.214-.086-.541-.129-.983-.129-.042 0-.064-.043-.064-.13 0-.086.022-.129.064-.129h9.054c.142 0 .213.065.213.194l.043 2.87c0 .03-.042.05-.128.065-.071.014-.114 0-.128-.043-.228-.834-.612-1.453-1.153-1.856s-1.253-.604-2.135-.604h-.641c-.427 0-.74.093-.94.28-.199.188-.298.475-.298.864v4.402h1.772c.826 0 1.459-.144 1.9-.432.442-.288.662-.69.662-1.208 0-.043.036-.065.107-.065.085 0 .128.022.128.065l-.021 1.942.021 1.036c.029.489.043.877.043 1.165 0 .029-.043.043-.128.043-.086 0-.128-.014-.128-.043 0-.59-.228-1.05-.684-1.381-.441-.345-1.082-.518-1.922-.518h-1.75v4.877c0 .417.078.726.234.928.157.201.406.302.748.302h.704c1.11 0 2-.23 2.67-.69.669-.461 1.16-1.173 1.473-2.137zm8.152 3.517c-.456 0-.997-.021-1.623-.064a42.084 42.084 0 00-.854-.044 25.522 25.522 0 00-1.11-.021l-1.58.021c-.285.015-.67.022-1.154.022-.028 0-.043-.043-.043-.13 0-.086.015-.129.043-.129.456 0 .79-.036 1.004-.108a.644.644 0 00.427-.41c.085-.216.128-.54.128-.97v-9.992c0-.431-.043-.748-.128-.95a.644.644 0 00-.427-.41c-.2-.086-.52-.129-.961-.129-.043 0-.064-.043-.064-.13 0-.086.021-.129.064-.129l1.132.022c.654.028 1.174.043 1.558.043.584 0 1.182-.022 1.794-.065a46.55 46.55 0 011.495-.043c1.438 0 2.712.288 3.822.863 1.124.576 1.993 1.36 2.605 2.352.612.993.918 2.108.918 3.345 0 1.395-.32 2.633-.96 3.712a6.57 6.57 0 01-2.563 2.481c-1.068.576-2.242.863-3.523.863zm-.214-.496c.911 0 1.715-.23 2.413-.69.697-.475 1.238-1.173 1.623-2.094.398-.92.598-2.02.598-3.301 0-1.223-.185-2.33-.556-3.323-.37-1.007-.896-1.799-1.58-2.374a3.57 3.57 0 00-2.37-.863c-.882 0-1.487.086-1.815.259-.327.172-.49.54-.49 1.1v9.71c0 .576.149.986.447 1.23.3.231.876.346 1.73.346zM51.28 55c-1.566 0-2.933-.302-4.1-.906-1.168-.605-2.057-1.425-2.67-2.46-.611-1.05-.918-2.216-.918-3.496 0-1.381.35-2.611 1.047-3.69.711-1.093 1.68-1.935 2.904-2.525 1.238-.604 2.619-.906 4.142-.906.67 0 1.346.057 2.029.172.683.101 1.231.238 1.644.41.128.044.206.101.235.173.042.058.071.166.085.324l.278 3c0 .042-.036.071-.107.086-.071.014-.12-.008-.15-.065-.498-1.108-1.188-1.971-2.07-2.59-.869-.618-1.865-.928-2.99-.928-1.452 0-2.563.511-3.331 1.533-.755 1.021-1.132 2.416-1.132 4.186 0 1.424.242 2.697.726 3.82.484 1.107 1.153 1.97 2.007 2.589a4.968 4.968 0 002.904.906c.584 0 1.032-.065 1.346-.194.313-.13.54-.381.683-.755.142-.374.213-.928.213-1.662 0-.748-.042-1.266-.128-1.554a.846.846 0 00-.555-.604c-.27-.1-.747-.15-1.43-.15-.086 0-.129-.058-.129-.173 0-.044.007-.08.022-.108.028-.044.057-.065.085-.065a51.62 51.62 0 002.925.108c.727 0 1.48-.022 2.264-.065.028 0 .05.022.064.065.028.029.043.057.043.086 0 .1-.036.151-.107.151-.256-.014-.434.036-.534.151-.1.1-.164.317-.192.648-.029.316-.043.892-.043 1.726 0 .647.021 1.108.064 1.38.057.274.086.447.086.519 0 .086-.022.144-.064.172a.488.488 0 01-.193.087c-1.836.403-3.487.604-4.953.604zm17.205-3.69c0-.029.028-.043.085-.043.043 0 .078.014.107.043.043.014.064.029.064.043a24.522 24.522 0 00-.214 3.064.433.433 0 01-.064.26c-.042.042-.128.064-.256.064H58.77c-.043 0-.064-.043-.064-.13 0-.086.021-.129.064-.129.456 0 .783-.036.982-.108a.644.644 0 00.427-.41c.072-.216.107-.54.107-.97v-9.992c0-.431-.035-.748-.107-.95a.644.644 0 00-.427-.41c-.213-.086-.54-.129-.982-.129-.043 0-.064-.043-.064-.13 0-.086.021-.129.064-.129h9.054c.142 0 .213.065.213.194l.043 2.87c0 .03-.043.05-.128.065-.071.014-.114 0-.128-.043-.228-.834-.612-1.453-1.153-1.856s-1.253-.604-2.136-.604h-.64c-.427 0-.74.093-.94.28-.199.188-.299.475-.299.864v4.402h1.773c.825 0 1.459-.144 1.9-.432.441-.288.662-.69.662-1.208 0-.043.036-.065.107-.065.085 0 .128.022.128.065l-.021 1.942.02 1.036c.03.489.044.877.044 1.165 0 .029-.043.043-.129.043-.085 0-.128-.014-.128-.043 0-.59-.227-1.05-.683-1.381-.441-.345-1.082-.518-1.922-.518h-1.75v4.877c0 .417.078.726.234.928.157.201.406.302.748.302h.704c1.11 0 2-.23 2.67-.69.668-.461 1.16-1.173 1.473-2.137zm16.821 3.172c.042 0 .064.043.064.13 0 .086-.022.13-.064.13-.498 0-.897-.008-1.196-.023l-1.644-.021-1.922.021c-.256.015-.605.022-1.046.022-.043 0-.064-.043-.064-.13 0-.086.021-.129.064-.129.526 0 .91-.036 1.153-.108.242-.072.406-.208.49-.41.086-.201.129-.525.129-.97V48.03h-6.897v4.963c0 .432.043.755.128.971.085.202.25.338.491.41.242.072.627.108 1.153.108.029 0 .043.043.043.13 0 .086-.014.13-.043.13-.498 0-.896-.008-1.195-.023l-1.858-.021-1.602.021c-.284.015-.676.022-1.174.022-.029 0-.043-.043-.043-.13 0-.086.014-.129.043-.129.498 0 .861-.036 1.089-.108a.713.713 0 00.47-.41c.085-.216.128-.54.128-.97v-9.992c0-.431-.043-.748-.128-.95a.713.713 0 00-.47-.41c-.214-.086-.562-.129-1.046-.129-.043 0-.064-.043-.064-.13 0-.086.02-.129.064-.129l1.153.022c.654.028 1.181.043 1.58.043.54 0 1.167-.015 1.879-.043l1.174-.022c.029 0 .043.043.043.13 0 .086-.014.13-.043.13-.512 0-.89.042-1.131.129a.851.851 0 00-.513.453c-.085.201-.128.518-.128.95v4.38h6.897v-4.38c0-.432-.043-.749-.128-.95a.776.776 0 00-.491-.453c-.242-.087-.627-.13-1.153-.13-.043 0-.064-.043-.064-.13 0-.086.021-.129.064-.129l1.046.022c.712.028 1.352.043 1.922.043.384 0 .932-.015 1.644-.043l1.196-.022c.042 0 .064.043.064.13 0 .086-.022.13-.064.13-.484 0-.847.042-1.09.129a.713.713 0 00-.469.41c-.071.201-.107.518-.107.95v9.99c0 .432.036.755.107.971a.713.713 0 00.47.41c.228.072.59.108 1.089.108zm8.491.518c-1.324 0-2.505-.31-3.544-.928a6.6 6.6 0 01-2.392-2.546 7.574 7.574 0 01-.833-3.518c0-1.481.37-2.747 1.11-3.797a6.962 6.962 0 012.84-2.396c1.168-.532 2.357-.798 3.567-.798 1.352 0 2.54.323 3.566.97a6.323 6.323 0 012.348 2.526 7.045 7.045 0 01.833 3.344 6.66 6.66 0 01-1.025 3.604 7.37 7.37 0 01-2.754 2.59 7.522 7.522 0 01-3.716.949zm.705-.54c.797 0 1.509-.23 2.135-.69.64-.475 1.139-1.158 1.495-2.05.356-.906.534-1.985.534-3.237 0-1.323-.2-2.503-.598-3.539-.399-1.05-.975-1.87-1.73-2.46-.754-.59-1.637-.885-2.647-.885-1.296 0-2.292.497-2.99 1.49-.697.978-1.046 2.352-1.046 4.121 0 1.395.206 2.647.619 3.755.427 1.093 1.004 1.949 1.73 2.568.74.618 1.573.928 2.498.928zm16.562.54c-1.566 0-2.933-.302-4.1-.906-1.167-.605-2.057-1.425-2.669-2.46-.612-1.05-.918-2.216-.918-3.496 0-1.381.349-2.611 1.046-3.69.712-1.093 1.68-1.935 2.904-2.525 1.239-.604 2.619-.906 4.143-.906.669 0 1.345.057 2.028.172.683.101 1.231.238 1.644.41.128.044.207.101.235.173.043.058.071.166.086.324l.277 3c0 .042-.035.071-.107.086-.071.014-.121-.008-.149-.065-.498-1.108-1.189-1.971-2.071-2.59-.869-.618-1.865-.928-2.99-.928-1.452 0-2.562.511-3.331 1.533-.754 1.021-1.132 2.416-1.132 4.186 0 1.424.242 2.697.726 3.82.484 1.107 1.154 1.97 2.008 2.589a4.966 4.966 0 002.904.906c.583 0 1.032-.065 1.345-.194.313-.13.541-.381.683-.755.143-.374.214-.928.214-1.662 0-.748-.043-1.266-.128-1.554a.848.848 0 00-.556-.604c-.27-.1-.747-.15-1.43-.15-.086 0-.128-.058-.128-.173 0-.044.007-.08.021-.108.029-.044.057-.065.085-.065a51.57 51.57 0 002.926.108c.726 0 1.48-.022 2.263-.065.029 0 .05.022.064.065.029.029.043.057.043.086 0 .1-.036.151-.107.151-.256-.014-.434.036-.534.151-.099.1-.163.317-.192.648-.028.316-.042.892-.042 1.726 0 .647.021 1.108.064 1.38.057.274.085.447.085.519 0 .086-.021.144-.064.172a.496.496 0 01-.192.087c-1.837.403-3.488.604-4.954.604zM83.571 17.654h30.361v1.278h-30.36v-1.278zm-82.228 0H30.44v1.278H1.343v-1.278z" stroke="#000" stroke-width="2" mask="url(#a)"/></svg>