<svg width="630" height="210" fill="none" xmlns="http://www.w3.org/2000/svg"><path d="M41.45 129.65c-2.1 0-3.683.533-4.75 1.6-1.033 1.067-1.783 2.883-2.25 5.45 0 .067-.1.1-.3.1-.167 0-.25-.033-.25-.1.133-1.2.283-2.767.45-4.7.167-1.933.25-3.383.25-4.35 0-.167.083-.25.25-.25.2 0 .3.083.3.25 0 .733.9 1.1 2.7 1.1 2.833.1 6.183.15 10.05.15 1.967 0 4.05-.033 6.25-.1l3.4-.05c1.2 0 2.083-.083 2.65-.25.6-.167.983-.5 1.15-1 .033-.133.133-.2.3-.2.167 0 .25.067.25.2-.1.967-.2 2.433-.3 4.4-.1 1.967-.15 3.567-.15 4.8 0 .067-.1.1-.3.1-.2 0-.3-.033-.3-.1-.1-2.6-.633-4.417-1.6-5.45-.967-1.067-2.567-1.6-4.8-1.6-1.5 0-2.567.067-3.2.2s-1.067.417-1.3.85c-.233.433-.35 1.167-.35 2.2v23.05c0 1.033.117 1.783.35 2.25.233.467.683.783 1.35.95.667.167 1.717.25 3.15.25.1 0 .15.1.15.3 0 .2-.05.3-.15.3-1.1 0-1.983-.017-2.65-.05l-3.9-.05-3.75.05c-.667.033-1.583.05-2.75.05-.067 0-.1-.1-.1-.3 0-.2.033-.3.1-.3 1.433 0 2.483-.083 3.15-.25.667-.167 1.117-.483 1.35-.95.267-.5.4-1.25.4-2.25V132.8c0-1.033-.117-1.75-.35-2.15-.233-.433-.667-.7-1.3-.8-.633-.133-1.7-.2-3.2-.2zm39.905 30.95c-3.1 0-5.867-.717-8.3-2.15a15.36 15.36 0 01-5.6-5.9c-1.3-2.5-1.95-5.217-1.95-8.15 0-3.433.866-6.367 2.6-8.8 1.733-2.467 3.95-4.317 6.65-5.55 2.733-1.233 5.516-1.85 8.35-1.85 3.166 0 5.95.75 8.35 2.25 2.4 1.467 4.233 3.417 5.5 5.85a16.21 16.21 0 011.95 7.75c0 3.033-.8 5.817-2.4 8.35-1.6 2.533-3.75 4.533-6.45 6-2.667 1.467-5.567 2.2-8.7 2.2zm1.75-1.05c2.266 0 4.3-.55 6.1-1.65 1.833-1.1 3.266-2.717 4.3-4.85 1.066-2.133 1.6-4.667 1.6-7.6 0-3.133-.584-5.917-1.75-8.35-1.167-2.433-2.817-4.333-4.95-5.7-2.1-1.367-4.567-2.05-7.4-2.05-3.667 0-6.534 1.183-8.6 3.55-2.067 2.367-3.1 5.617-3.1 9.75 0 3.133.583 6 1.75 8.6 1.166 2.567 2.8 4.6 4.9 6.1 2.1 1.467 4.483 2.2 7.15 2.2zm65.573-.15c.067 0 .1.1.1.3 0 .2-.033.3-.1.3h-6.35c-.4 0-.75-.117-1.05-.35-.3-.267-.817-.917-1.55-1.95l-4-6.1c-1.533-2.367-2.65-4-3.35-4.9-.7-.933-1.433-1.567-2.2-1.9-.733-.367-1.767-.55-3.1-.55l-1.1.05v11.65c0 1.033.1 1.783.3 2.25.2.467.583.783 1.15.95.6.167 1.55.25 2.85.25.1 0 .15.1.15.3 0 .2-.05.3-.15.3-1.033 0-1.85-.017-2.45-.05l-3.55-.05-3.4.05c-.6.033-1.433.05-2.5.05-.067 0-.1-.1-.1-.3 0-.2.033-.3.1-.3 1.3 0 2.25-.083 2.85-.25.6-.167 1-.483 1.2-.95.233-.5.35-1.25.35-2.25v-11.6c-.6-.067-1.017-.1-1.25-.1-1.3 0-2.333.183-3.1.55-.733.333-1.467.95-2.2 1.85-.7.9-1.817 2.517-3.35 4.85l-1 1.6a211.907 211.907 0 01-3 4.6c-.767 1.1-1.283 1.767-1.55 2-.267.2-.6.3-1 .3h-6.3c-.067 0-.1-.1-.1-.3 0-.2.034-.3.1-.3 1.267-.033 2.383-.35 3.35-.95 1-.633 1.967-1.517 2.9-2.65.933-1.167 2.167-2.9 3.7-5.2 1.767-2.7 3-4.467 3.7-5.3.733-.867 1.567-1.433 2.5-1.7l-5.85-8.65c-1.4-2.067-2.783-3.517-4.15-4.35-1.333-.833-2.933-1.25-4.8-1.25-.067 0-.1-.1-.1-.3 0-.2.033-.3.1-.3l1.85.05c1.2.067 2.35.1 3.45.1s2.317-.033 3.65-.1l2.3-.05c.1 0 .15.1.15.3 0 .2-.05.3-.15.3-.933 0-1.617.1-2.05.3-.4.167-.6.467-.6.9 0 .4.167.933.5 1.6.367.667.933 1.633 1.7 2.9l5.05 8.4c.333-.067.917-.1 1.75-.1l2.75.05c.2.033.55.05 1.05.05V132.8c0-.967-.15-1.683-.45-2.15-.267-.5-.733-.833-1.4-1-.667-.2-1.65-.3-2.95-.3-.067 0-.1-.1-.1-.3 0-.2.033-.3.1-.3l2.7.05c1.533.067 2.733.1 3.6.1.967 0 2.25-.033 3.85-.1l2.65-.05c.067 0 .1.1.1.3 0 .2-.033.3-.1.3-1.267 0-2.25.1-2.95.3-.667.2-1.15.55-1.45 1.05-.267.5-.4 1.233-.4 2.2v10.55c2.067-.067 3.3-.1 3.7-.1.833 0 1.417.017 1.75.05l5.05-8.3c.767-1.233 1.317-2.2 1.65-2.9.367-.7.55-1.25.55-1.65 0-.433-.2-.733-.6-.9-.4-.2-1.067-.3-2-.3-.1 0-.15-.1-.15-.3 0-.2.05-.3.15-.3l2.3.05c1.333.067 2.55.1 3.65.1s2.25-.033 3.45-.1l1.85-.05c.067 0 .1.1.1.3 0 .2-.033.3-.1.3-1.867 0-3.483.417-4.85 1.25-1.333.833-2.7 2.283-4.1 4.35l-5.9 8.65c.9.233 1.683.733 2.35 1.5s1.767 2.3 3.3 4.6l.6.9c1.533 2.3 2.767 4.033 3.7 5.2.933 1.133 1.883 2.017 2.85 2.65 1 .6 2.133.917 3.4.95zm24.211-6.85c0-.067.066-.1.2-.1.1 0 .183.017.25.05.1.033.15.083.15.15-.3 2.1-.45 4.3-.45 6.6 0 .267-.067.467-.2.6-.1.1-.3.15-.6.15h-20.95c-.067 0-.1-.1-.1-.3 0-.2.033-.3.1-.3 1.266 0 2.183-.083 2.75-.25.6-.167 1-.483 1.2-.95.233-.5.35-1.25.35-2.25V132.8c0-1-.117-1.733-.35-2.2-.2-.467-.6-.783-1.2-.95-.567-.2-1.484-.3-2.75-.3-.067 0-.1-.1-.1-.3 0-.2.033-.3.1-.3h20.1c.3 0 .45.15.45.45l.1 6.15c0 .1-.084.167-.25.2-.167 0-.267-.05-.3-.15-.1-1.767-.634-3.133-1.6-4.1-.967-1-2.25-1.5-3.85-1.5h-3.05c-1.167 0-2.034.1-2.6.3-.534.167-.917.483-1.15.95-.2.433-.3 1.1-.3 2v10.15h6.1c1.6 0 2.733-.267 3.4-.8.7-.533 1.05-1.433 1.05-2.7 0-.067.1-.1.3-.1.2 0 .3.033.3.1l-.05 4.05c0 .967.016 1.7.05 2.2l.05 2.4c0 .067-.1.1-.3.1-.2 0-.3-.033-.3-.1 0-1.467-.367-2.517-1.1-3.15-.7-.633-1.884-.95-3.55-.95h-5.95v11.5c0 .933.1 1.617.3 2.05.2.433.566.733 1.1.9.533.167 1.366.25 2.5.25h4c1.6 0 2.933-.567 4-1.7 1.066-1.133 1.783-2.7 2.15-4.7zm49.774 6.85c.133 0 .2.1.2.3 0 .2-.067.3-.2.3-.633 0-1.617-.033-2.95-.1-1.333-.067-2.3-.1-2.9-.1-.733 0-1.667.033-2.8.1-1.067.067-1.883.1-2.45.1-.133 0-.2-.1-.2-.3 0-.2.067-.3.2-.3 1.233 0 2.133-.117 2.7-.35.567-.233.85-.633.85-1.2 0-.467-.217-1.183-.65-2.15l-10.75-22.8-8.75 20.75c-.467 1.133-.7 2.067-.7 2.8 0 1.967 1.633 2.95 4.9 2.95.167 0 .25.1.25.3 0 .2-.083.3-.25.3-.6 0-1.467-.033-2.6-.1a63.547 63.547 0 00-3.3-.1c-.867 0-1.867.033-3 .1-1 .067-1.833.1-2.5.1-.167 0-.25-.1-.25-.3 0-.2.083-.3.25-.3.933 0 1.717-.167 2.35-.5.667-.367 1.283-.983 1.85-1.85.6-.9 1.25-2.183 1.95-3.85l10.55-24.9c.067-.1.183-.15.35-.15.167 0 .267.05.3.15l11.8 24.85c1.133 2.467 2.1 4.133 2.9 5 .8.833 1.75 1.25 2.85 1.25zm34.307-31.2c3.034 0 5.7.75 8 2.25a14.7 14.7 0 015.3 5.85 16.545 16.545 0 011.9 7.75c0 3.033-.783 5.817-2.35 8.35-1.533 2.533-3.6 4.533-6.2 6-2.6 1.467-5.416 2.2-8.45 2.2-3 0-5.666-.717-8-2.15-2.3-1.467-4.083-3.433-5.35-5.9-1.266-2.5-1.9-5.217-1.9-8.15v-.15h-7.75v11.7c0 1 .1 1.75.3 2.25.234.467.65.783 1.25.95.6.167 1.55.25 2.85.25.067 0 .1.1.1.3 0 .2-.033.3-.1.3-1.033 0-1.85-.017-2.45-.05l-3.6-.05-3.45.05c-.6.033-1.433.05-2.5.05-.066 0-.1-.1-.1-.3 0-.2.034-.3.1-.3 1.267 0 2.2-.083 2.8-.25.634-.167 1.05-.483 1.25-.95.234-.5.35-1.25.35-2.25V132.8c0-1-.116-1.733-.35-2.2-.2-.467-.6-.783-1.2-.95-.6-.2-1.533-.3-2.8-.3-.066 0-.1-.1-.1-.3 0-.2.034-.3.1-.3l2.55.05c1.4.067 2.517.1 3.35.1.967 0 2.184-.033 3.65-.1l2.4-.05c.067 0 .1.1.1.3 0 .2-.033.3-.1.3-1.266 0-2.216.1-2.85.3-.6.2-1.016.55-1.25 1.05-.2.467-.3 1.2-.3 2.2v10.3h7.8c.2-3.167 1.15-5.883 2.85-8.15 1.734-2.267 3.867-3.967 6.4-5.1 2.534-1.167 5.117-1.75 7.75-1.75zm-.1 31.35c2.134 0 4.05-.55 5.75-1.65 1.734-1.1 3.1-2.717 4.1-4.85 1-2.133 1.5-4.667 1.5-7.6 0-3.133-.566-5.917-1.7-8.35-1.1-2.433-2.666-4.333-4.7-5.7-2.033-1.367-4.4-2.05-7.1-2.05-3.5 0-6.233 1.183-8.2 3.55-1.933 2.367-2.9 5.617-2.9 9.75 0 3.133.55 6 1.65 8.6 1.134 2.567 2.7 4.6 4.7 6.1 2.034 1.467 4.334 2.2 6.9 2.2zm31.557-17.2c7.733 0 11.6 2.75 11.6 8.25 0 1.867-.433 3.533-1.3 5-.833 1.467-2.017 2.6-3.55 3.4-1.533.8-3.283 1.2-5.25 1.2-.9 0-1.95-.05-3.15-.15-.5-.033-1.1-.067-1.8-.1a47.9 47.9 0 00-2.25-.05l-3.4.05c-.6.033-1.45.05-2.55.05-.067 0-.1-.1-.1-.3 0-.2.033-.3.1-.3 1.267 0 2.2-.083 2.8-.25.6-.2 1.017-.533 1.25-1 .233-.467.35-1.2.35-2.2V132.8c0-1-.117-1.733-.35-2.2-.2-.467-.6-.783-1.2-.95-.567-.2-1.483-.3-2.75-.3-.1 0-.15-.1-.15-.3 0-.2.05-.3.15-.3h19.7c.2 0 .333.05.4.15.067.067.117.217.15.45l.65 6.4c0 .1-.083.15-.25.15-.167 0-.283-.05-.35-.15-.333-1.867-1.033-3.333-2.1-4.4-1.033-1.067-2.317-1.6-3.85-1.6h-2.85c-1.167 0-2.033.1-2.6.3-.533.167-.9.483-1.1.95-.2.433-.3 1.133-.3 2.1v9.5c1.567-.167 2.917-.25 4.05-.25zm.5 16.95c2.667 0 4.6-.6 5.8-1.8 1.2-1.233 1.8-3.1 1.8-5.6 0-3.067-.8-5.25-2.4-6.55-1.6-1.333-3.9-2-6.9-2-1 0-1.95.067-2.85.2v12.4c0 1.167.3 2.017.9 2.55.6.533 1.817.8 3.65.8zm41.481.1c.066 0 .1.1.1.3 0 .2-.034.3-.1.3-1.067 0-1.9-.017-2.5-.05l-3.45-.05-3.5.05c-.6.033-1.417.05-2.45.05-.067 0-.1-.1-.1-.3 0-.2.033-.3.1-.3 1.266 0 2.2-.083 2.8-.25.6-.167 1-.483 1.2-.95.2-.5.3-1.25.3-2.25V143.8c-1.1.067-2.067.317-2.9.75-.8.4-1.65 1.15-2.55 2.25-.867 1.067-1.917 2.667-3.15 4.8-1.634 2.8-2.884 4.8-3.75 6-.834 1.2-1.434 1.9-1.8 2.1-.334.2-.784.3-1.35.3h-5.15c-.1 0-.15-.1-.15-.3 0-.2.05-.3.15-.3 1.733-.033 3.233-.7 4.5-2 1.266-1.333 2.8-3.6 4.6-6.8 1.266-2.2 2.433-3.8 3.5-4.8 1.066-1 2.3-1.667 3.7-2-2.9-.267-5.117-1.05-6.65-2.35-1.5-1.333-2.25-3.05-2.25-5.15 0-1.5.383-2.833 1.15-4 .8-1.167 1.883-2.067 3.25-2.7 1.4-.667 2.966-1 4.7-1 .766 0 1.65.05 2.65.15.4.033.866.067 1.4.1.533.033 1.116.05 1.75.05.866 0 2-.033 3.4-.1l2.55-.05c.066 0 .1.1.1.3 0 .2-.034.3-.1.3-1.3 0-2.25.1-2.85.3-.6.167-1 .483-1.2.95-.2.467-.3 1.2-.3 2.2v23.15c0 1 .1 1.75.3 2.25.233.467.633.783 1.2.95.6.167 1.55.25 2.85.25zm-17.45-24.35c0 2.433.683 4.383 2.05 5.85 1.366 1.467 3.35 2.2 5.95 2.2.433 0 1.05-.033 1.85-.1v-10.1c0-1.333-.4-2.267-1.2-2.8-.8-.567-1.8-.85-3-.85-3.767 0-5.65 1.933-5.65 5.8zm28.687-5.4c-2.1 0-3.683.533-4.75 1.6-1.033 1.067-1.783 2.883-2.25 5.45 0 .067-.1.1-.3.1-.166 0-.25-.033-.25-.1.134-1.2.284-2.767.45-4.7.167-1.933.25-3.383.25-4.35 0-.167.084-.25.25-.25.2 0 .3.083.3.25 0 .733.9 1.1 2.7 1.1 2.834.1 6.184.15 10.05.15 1.967 0 4.05-.033 6.25-.1l3.4-.05c1.2 0 2.084-.083 2.65-.25.6-.167.984-.5 1.15-1 .034-.133.134-.2.3-.2.167 0 .25.067.25.2-.1.967-.2 2.433-.3 4.4-.1 1.967-.15 3.567-.15 4.8 0 .067-.1.1-.3.1-.2 0-.3-.033-.3-.1-.1-2.6-.633-4.417-1.6-5.45-.966-1.067-2.566-1.6-4.8-1.6-1.5 0-2.566.067-3.2.2-.633.133-1.066.417-1.3.85-.233.433-.35 1.167-.35 2.2v23.05c0 1.033.117 1.783.35 2.25.234.467.684.783 1.35.95.667.167 1.717.25 3.15.25.1 0 .15.1.15.3 0 .2-.05.3-.15.3-1.1 0-1.983-.017-2.65-.05l-3.9-.05-3.75.05c-.666.033-1.583.05-2.75.05-.066 0-.1-.1-.1-.3 0-.2.034-.3.1-.3 1.434 0 2.484-.083 3.15-.25.667-.167 1.117-.483 1.35-.95.267-.5.4-1.25.4-2.25V132.8c0-1.033-.116-1.75-.35-2.15-.233-.433-.666-.7-1.3-.8-.633-.133-1.7-.2-3.2-.2zm74.559 29.75c.1 0 .15.1.15.3 0 .2-.05.3-.15.3-1.034 0-1.85-.017-2.45-.05l-3.45-.05-3.2.05c-.534.033-1.284.05-2.25.05-.067 0-.1-.1-.1-.3 0-.2.033-.3.1-.3 1.133 0 1.966-.083 2.5-.25.566-.2.933-.533 1.1-1 .2-.467.266-1.2.2-2.2l-.9-22.75-11.4 26.45c-.067.133-.2.2-.4.2a.622.622 0 01-.45-.2l-12.3-26.15-.45 21.05c-.034 1.767.266 3.017.9 3.75.633.733 1.75 1.1 3.35 1.1.066 0 .1.1.1.3 0 .2-.034.3-.1.3-.934 0-1.65-.017-2.15-.05l-2.7-.05-2.6.05c-.467.033-1.134.05-2 .05-.067 0-.1-.1-.1-.3 0-.2.033-.3.1-.3 1.4 0 2.4-.367 3-1.1.633-.767.966-2.017 1-3.75l.45-23.2c-1-1.333-2.367-2-4.1-2-.067 0-.1-.1-.1-.3 0-.2.033-.3.1-.3l1.85.05c.333.033.8.05 1.4.05.6 0 1.1-.017 1.5-.05.433-.033.766-.05 1-.05.433 0 .783.167 1.05.5.3.3.716 1 1.25 2.1l11.15 23.5 10.9-24.85c.366-.833.866-1.25 1.5-1.25.166 0 .4.017.7.05.333.033.766.05 1.3.05l2.35-.05c.366-.033.916-.05 1.65-.05.1 0 .15.1.15.3 0 .2-.05.3-.15.3-1.667 0-2.867.25-3.6.75-.7.467-1.034 1.367-1 2.7l1 23.15c.033 1.033.15 1.783.35 2.25.233.467.633.783 1.2.95.566.167 1.483.25 2.75.25zm19.496 1.2c-3.1 0-5.866-.717-8.3-2.15a15.365 15.365 0 01-5.6-5.9c-1.3-2.5-1.95-5.217-1.95-8.15 0-3.433.867-6.367 2.6-8.8 1.734-2.467 3.95-4.317 6.65-5.55 2.734-1.233 5.517-1.85 8.35-1.85 3.167 0 5.95.75 8.35 2.25 2.4 1.467 4.234 3.417 5.5 5.85a16.21 16.21 0 011.95 7.75c0 3.033-.8 5.817-2.4 8.35-1.6 2.533-3.75 4.533-6.45 6-2.666 1.467-5.566 2.2-8.7 2.2zm1.75-1.05c2.267 0 4.3-.55 6.1-1.65 1.834-1.1 3.267-2.717 4.3-4.85 1.067-2.133 1.6-4.667 1.6-7.6 0-3.133-.583-5.917-1.75-8.35-1.166-2.433-2.816-4.333-4.95-5.7-2.1-1.367-4.566-2.05-7.4-2.05-3.666 0-6.533 1.183-8.6 3.55-2.066 2.367-3.1 5.617-3.1 9.75 0 3.133.584 6 1.75 8.6 1.167 2.567 2.8 4.6 4.9 6.1 2.1 1.467 4.484 2.2 7.15 2.2zm52.596-.15c.133 0 .2.1.2.3 0 .2-.067.3-.2.3-.634 0-1.617-.033-2.95-.1-1.334-.067-2.3-.1-2.9-.1-.734 0-1.667.033-2.8.1-1.067.067-1.884.1-2.45.1-.134 0-.2-.1-.2-.3 0-.2.066-.3.2-.3 1.233 0 2.133-.117 2.7-.35.566-.233.85-.633.85-1.2 0-.467-.217-1.183-.65-2.15l-10.75-22.8-8.75 20.75c-.467 1.133-.7 2.067-.7 2.8 0 1.967 1.633 2.95 4.9 2.95.166 0 .25.1.25.3 0 .2-.084.3-.25.3-.6 0-1.467-.033-2.6-.1a63.547 63.547 0 00-3.3-.1c-.867 0-1.867.033-3 .1-1 .067-1.834.1-2.5.1-.167 0-.25-.1-.25-.3 0-.2.083-.3.25-.3.933 0 1.716-.167 2.35-.5.666-.367 1.283-.983 1.85-1.85.6-.9 1.25-2.183 1.95-3.85l10.55-24.9c.066-.1.183-.15.35-.15.166 0 .266.05.3.15l11.8 24.85c1.133 2.467 2.1 4.133 2.9 5 .8.833 1.75 1.25 2.85 1.25zm17.871 1.2c-3.1 0-5.866-.717-8.3-2.15a15.365 15.365 0 01-5.6-5.9c-1.3-2.5-1.95-5.217-1.95-8.15 0-3.433.867-6.367 2.6-8.8 1.734-2.467 3.95-4.317 6.65-5.55 2.734-1.233 5.517-1.85 8.35-1.85 3.167 0 5.95.75 8.35 2.25 2.4 1.467 4.234 3.417 5.5 5.85a16.21 16.21 0 011.95 7.75c0 3.033-.8 5.817-2.4 8.35-1.6 2.533-3.75 4.533-6.45 6-2.666 1.467-5.566 2.2-8.7 2.2zm1.75-1.05c2.267 0 4.3-.55 6.1-1.65 1.834-1.1 3.267-2.717 4.3-4.85 1.067-2.133 1.6-4.667 1.6-7.6 0-3.133-.583-5.917-1.75-8.35-1.166-2.433-2.816-4.333-4.95-5.7-2.1-1.367-4.566-2.05-7.4-2.05-3.666 0-6.533 1.183-8.6 3.55-2.066 2.367-3.1 5.617-3.1 9.75 0 3.133.584 6 1.75 8.6 1.167 2.567 2.8 4.6 4.9 6.1 2.1 1.467 4.484 2.2 7.15 2.2zm50.631-.15c.067 0 .1.1.1.3 0 .2-.033.3-.1.3h-6.3c-.466 0-.883-.117-1.25-.35-.333-.267-.9-.933-1.7-2-.8-1.067-2.233-3.083-4.3-6.05-1.633-2.333-2.816-3.95-3.55-4.85-.733-.9-1.483-1.533-2.25-1.9-.766-.4-1.8-.6-3.1-.6-.3 0-.516.017-.65.05v11.65c0 1 .1 1.75.3 2.25.234.467.634.783 1.2.95.6.167 1.55.25 2.85.25.067 0 .1.1.1.3 0 .2-.033.3-.1.3-1.033 0-1.85-.017-2.45-.05l-3.6-.05-3.4.05c-.6.033-1.433.05-2.5.05-.066 0-.1-.1-.1-.3 0-.2.034-.3.1-.3 1.267 0 2.2-.083 2.8-.25.6-.167 1-.483 1.2-.95.234-.5.35-1.25.35-2.25V132.8c0-1-.1-1.733-.3-2.2-.2-.467-.6-.783-1.2-.95-.6-.2-1.533-.3-2.8-.3-.066 0-.1-.1-.1-.3 0-.2.034-.3.1-.3l2.45.05c1.4.067 2.534.1 3.4.1.967 0 2.184-.033 3.65-.1l2.4-.05c.067 0 .1.1.1.3 0 .2-.033.3-.1.3-1.266 0-2.2.1-2.8.3-.6.2-1.016.55-1.25 1.05-.2.467-.3 1.2-.3 2.2v10.55c1.8-.067 2.917-.1 3.35-.1h.95l6.05-8.45c1.5-2.067 2.25-3.5 2.25-4.3 0-.433-.216-.75-.65-.95-.4-.2-1.033-.3-1.9-.3-.066 0-.1-.1-.1-.3 0-.2.034-.3.1-.3l2.15.05c1.267.067 2.45.1 3.55.1 1.134 0 2.3-.033 3.5-.1l1.8-.05c.1 0 .15.1.15.3 0 .2-.05.3-.15.3-1.733 0-3.266.433-4.6 1.3-1.333.833-2.766 2.267-4.3 4.3l-6.7 8.55c.8.133 1.484.4 2.05.8.6.4 1.2.967 1.8 1.7.6.7 1.484 1.883 2.65 3.55l.75 1.05c1.567 2.2 2.834 3.883 3.8 5.05.967 1.167 1.984 2.083 3.05 2.75 1.067.633 2.25.967 3.55 1zm17.004 1.2c-3.1 0-5.867-.717-8.3-2.15a15.357 15.357 0 01-5.6-5.9c-1.3-2.5-1.95-5.217-1.95-8.15 0-3.433.867-6.367 2.6-8.8 1.733-2.467 3.95-4.317 6.65-5.55 2.733-1.233 5.517-1.85 8.35-1.85 3.167 0 5.95.75 8.35 2.25 2.4 1.467 4.233 3.417 5.5 5.85a16.21 16.21 0 011.95 7.75c0 3.033-.8 5.817-2.4 8.35-1.6 2.533-3.75 4.533-6.45 6-2.667 1.467-5.567 2.2-8.7 2.2zm1.75-1.05c2.267 0 4.3-.55 6.1-1.65 1.833-1.1 3.267-2.717 4.3-4.85 1.067-2.133 1.6-4.667 1.6-7.6 0-3.133-.583-5.917-1.75-8.35s-2.817-4.333-4.95-5.7c-2.1-1.367-4.567-2.05-7.4-2.05-3.667 0-6.533 1.183-8.6 3.55-2.067 2.367-3.1 5.617-3.1 9.75 0 3.133.583 6 1.75 8.6 1.167 2.567 2.8 4.6 4.9 6.1 2.1 1.467 4.483 2.2 7.15 2.2zM.686 197.236c.29-.392.658-.695 1.106-.91.457-.224.999-.336 1.624-.336.905 0 1.605.201 2.1.602.504.401.756.98.756 1.736 0 .569-.145 1.055-.434 1.456-.28.392-.695.653-1.246.784.672.093 1.195.369 1.568.826.373.448.56 1.008.56 1.68a2.837 2.837 0 01-.952 2.156 3.13 3.13 0 01-1.064.616c-.41.149-.859.224-1.344.224-.672 0-1.274-.14-1.806-.42a2.953 2.953 0 01-1.204-1.162l.784-.588c.215.392.518.705.91.938.392.224.85.336 1.372.336.336 0 .644-.047.924-.14.29-.103.537-.243.742-.42a1.81 1.81 0 00.476-.644c.121-.252.182-.532.182-.84 0-.663-.252-1.181-.756-1.554-.504-.383-1.204-.574-2.1-.574h-.686v-.882h.686c.775 0 1.372-.149 1.792-.448.43-.308.644-.737.644-1.288 0-.513-.177-.896-.532-1.148-.345-.261-.798-.392-1.358-.392-.467 0-.882.093-1.246.28a2.044 2.044 0 00-.84.714l-.658-.602zm9.526 8.904c-.345 0-.667-.056-.966-.168a2.64 2.64 0 01-.77-.49 2.249 2.249 0 01-.504-.714 2.23 2.23 0 01-.182-.896c0-.317.075-.611.224-.882.15-.271.36-.504.63-.7a2.98 2.98 0 01.966-.448 4.274 4.274 0 011.232-.168c.373 0 .752.033 1.134.098.383.065.723.159 1.022.28v-.658c0-.644-.182-1.153-.546-1.526-.364-.383-.868-.574-1.512-.574a3.22 3.22 0 00-1.148.224 5.522 5.522 0 00-1.19.644l-.336-.63c.943-.635 1.857-.952 2.744-.952.915 0 1.633.257 2.156.77.523.513.784 1.223.784 2.128v3.29c0 .261.117.392.35.392v.84c-.159.028-.28.042-.364.042-.242 0-.434-.061-.574-.182-.13-.121-.2-.289-.21-.504l-.028-.574a3.29 3.29 0 01-1.274 1.008c-.504.233-1.05.35-1.638.35zm.224-.728c.495 0 .947-.093 1.358-.28.42-.187.737-.434.952-.742a.8.8 0 00.182-.266.686.686 0 00.07-.28v-1.19a5.79 5.79 0 00-2.03-.378c-.672 0-1.218.14-1.638.42-.42.28-.63.649-.63 1.106 0 .224.042.434.126.63.093.196.215.369.364.518.159.14.345.252.56.336.215.084.444.126.686.126zm9.197-6.706a1.778 1.778 0 011.288.532c.168.159.294.345.378.56.093.215.14.448.14.7 0 .168-.024.336-.07.504a1.95 1.95 0 01-.182.49 1.953 1.953 0 01-.322.42 1.585 1.585 0 01-.462.294c.41.112.732.327.966.644.233.317.35.7.35 1.148 0 .299-.056.569-.168.812a1.764 1.764 0 01-.448.63 2.07 2.07 0 01-.672.42 2.53 2.53 0 01-.854.14h-3.514v-7.294h3.57zm-.378 3.22c.382 0 .686-.121.91-.364.224-.243.336-.551.336-.924a1.36 1.36 0 00-.28-.854c-.187-.243-.476-.364-.868-.364h-2.366v2.506h2.268zm.224 3.36c.196 0 .373-.037.532-.112.168-.075.308-.173.42-.294.112-.131.2-.275.266-.434a1.32 1.32 0 00.098-.504c0-.336-.117-.635-.35-.896-.224-.261-.537-.392-.938-.392h-2.52v2.632h2.492zm7.02.854a3.627 3.627 0 01-1.47-.294 3.758 3.758 0 01-1.148-.826 4.039 4.039 0 01-.77-1.218 4.029 4.029 0 01-.266-1.47c0-.513.088-.994.266-1.442a3.79 3.79 0 01.756-1.19 3.532 3.532 0 011.162-.812 3.458 3.458 0 011.456-.308c.532 0 1.017.103 1.456.308.448.196.83.467 1.148.812a3.843 3.843 0 011.008 2.618v.224a.56.56 0 01-.014.154h-6.244c.028.392.117.756.266 1.092.159.327.36.611.602.854s.518.434.826.574a2.616 2.616 0 001.708.098c.233-.065.448-.154.644-.266.196-.112.373-.247.532-.406.159-.168.28-.35.364-.546l.826.224a2.51 2.51 0 01-.476.742 3.618 3.618 0 01-.714.574c-.27.159-.57.28-.896.364a3.72 3.72 0 01-1.022.14zm2.688-4.172a2.799 2.799 0 00-.28-1.064 2.71 2.71 0 00-.588-.84 2.51 2.51 0 00-.826-.546 2.513 2.513 0 00-.994-.196c-.355 0-.69.065-1.008.196a2.675 2.675 0 00-.84.546 2.843 2.843 0 00-.574.84c-.14.327-.224.681-.252 1.064h5.362zm1.362 3.206h.42c.205-.047.383-.149.532-.308.159-.168.298-.42.42-.756.121-.345.229-.793.322-1.344.093-.56.191-1.255.294-2.086l.224-1.974h4.27v6.468h.896v3.08h-.84V206h-5.74v2.254h-.798v-3.08zm5.558 0v-5.712h-2.464l-.21 1.624c-.159 1.157-.331 2.063-.518 2.716-.178.653-.392 1.111-.644 1.372h3.836zm4.272-.518l4.354-5.95h.77V206h-.938v-5.838L40.295 206h-.854v-7.294h.938v5.95zM50.36 206h-.924v-6.468h-2.562v-.826h6.048v.826H50.36V206zm6.696.14a3.627 3.627 0 01-1.47-.294 3.756 3.756 0 01-1.148-.826 4.035 4.035 0 01-.77-1.218 4.026 4.026 0 01-.267-1.47c0-.513.09-.994.266-1.442.187-.457.44-.854.756-1.19a3.53 3.53 0 011.163-.812 3.457 3.457 0 011.456-.308c.532 0 1.017.103 1.456.308.448.196.83.467 1.148.812a3.845 3.845 0 011.008 2.618v.224a.563.563 0 01-.015.154h-6.244c.028.392.117.756.266 1.092.16.327.36.611.602.854.243.243.519.434.827.574a2.615 2.615 0 001.707.098 2.81 2.81 0 00.645-.266 2.5 2.5 0 00.532-.406c.158-.168.28-.35.364-.546l.825.224c-.111.271-.27.518-.475.742a3.624 3.624 0 01-.715.574c-.27.159-.569.28-.895.364-.327.093-.668.14-1.023.14zm2.688-4.172a2.8 2.8 0 00-.28-1.064 2.714 2.714 0 00-1.414-1.386 2.513 2.513 0 00-.994-.196c-.355 0-.691.065-1.008.196a2.673 2.673 0 00-.84.546 2.839 2.839 0 00-.575.84c-.14.327-.224.681-.252 1.064h5.362zm5.443.364c0-.513.088-.999.266-1.456a3.62 3.62 0 01.742-1.19 3.532 3.532 0 011.162-.812 3.663 3.663 0 011.484-.294c.69 0 1.292.159 1.806.476.513.308.9.728 1.162 1.26l-.924.294a2.158 2.158 0 00-.868-.868 2.35 2.35 0 00-1.218-.322 2.5 2.5 0 00-1.05.224 2.716 2.716 0 00-.84.616c-.234.252-.42.555-.56.91a3.34 3.34 0 00-.196 1.162c0 .411.07.798.21 1.162.14.364.331.681.574.952.242.261.522.471.84.63a2.468 2.468 0 001.722.126c.233-.065.448-.154.644-.266a2.46 2.46 0 00.504-.406c.14-.149.238-.308.294-.476l.938.28a2.48 2.48 0 01-.448.728c-.196.215-.43.406-.7.574-.262.159-.556.28-.882.364-.318.093-.649.14-.994.14a3.627 3.627 0 01-1.47-.294 3.709 3.709 0 01-1.162-.826 4.039 4.039 0 01-.77-1.218 4.029 4.029 0 01-.266-1.47zm11.255 3.808a3.627 3.627 0 01-1.47-.294 3.757 3.757 0 01-1.148-.826 4.037 4.037 0 01-.77-1.218 4.029 4.029 0 01-.266-1.47c0-.513.089-.994.266-1.442.187-.457.439-.854.756-1.19a3.532 3.532 0 011.162-.812 3.457 3.457 0 011.456-.308c.532 0 1.017.103 1.456.308.448.196.83.467 1.148.812a3.845 3.845 0 011.008 2.618v.224a.563.563 0 01-.014.154h-6.244c.028.392.117.756.266 1.092.159.327.36.611.602.854.243.243.518.434.826.574a2.615 2.615 0 001.708.098c.234-.065.448-.154.644-.266a2.5 2.5 0 00.532-.406c.159-.168.28-.35.364-.546l.826.224c-.112.271-.27.518-.476.742a3.618 3.618 0 01-.714.574c-.27.159-.57.28-.896.364a3.71 3.71 0 01-1.022.14zm2.688-4.172a2.799 2.799 0 00-.28-1.064 2.71 2.71 0 00-.588-.84 2.511 2.511 0 00-.826-.546 2.513 2.513 0 00-.994-.196c-.354 0-.69.065-1.008.196a2.675 2.675 0 00-.84.546 2.84 2.84 0 00-.574.84c-.14.327-.224.681-.252 1.064h5.362zm5.949-4.998c-.821.187-1.475.56-1.96 1.12-.476.551-.775 1.335-.896 2.352.29-.448.649-.793 1.078-1.036.43-.243.924-.364 1.484-.364.476 0 .91.089 1.302.266.392.177.728.425 1.008.742.29.308.509.681.658 1.12.159.439.238.919.238 1.442a4.21 4.21 0 01-.238 1.442 3.123 3.123 0 01-.686 1.106 3.197 3.197 0 01-1.092.728c-.42.168-.896.252-1.428.252-1.073 0-1.89-.378-2.45-1.134-.56-.756-.84-1.829-.84-3.22 0-.849.084-1.596.252-2.24.177-.644.425-1.195.742-1.652.327-.467.723-.84 1.19-1.12a5.324 5.324 0 011.582-.644l2.184-.504.182.798-2.31.546zm-2.842 5.6c0 .392.056.761.168 1.106.112.336.27.63.476.882.215.243.467.434.756.574.299.14.63.21.994.21s.69-.065.98-.196c.299-.14.55-.331.756-.574.215-.243.378-.527.49-.854.112-.336.168-.7.168-1.092 0-.831-.22-1.489-.658-1.974-.439-.485-1.031-.728-1.778-.728-.345 0-.663.061-.952.182-.29.121-.537.299-.742.532a2.484 2.484 0 00-.49.826 3.399 3.399 0 00-.168 1.106zm10.557 3.57a3.627 3.627 0 01-1.47-.294 3.756 3.756 0 01-1.148-.826 4.035 4.035 0 01-.77-1.218 4.026 4.026 0 01-.266-1.47c0-.513.088-.994.266-1.442a3.79 3.79 0 01.756-1.19 3.53 3.53 0 011.162-.812 3.457 3.457 0 011.456-.308c.532 0 1.017.103 1.456.308.448.196.83.467 1.148.812a3.845 3.845 0 011.008 2.618v.224a.563.563 0 01-.014.154h-6.244c.028.392.116.756.266 1.092.158.327.36.611.602.854s.518.434.826.574a2.615 2.615 0 001.708.098c.233-.065.448-.154.644-.266a2.5 2.5 0 00.532-.406c.158-.168.28-.35.364-.546l.826.224c-.112.271-.27.518-.476.742a3.624 3.624 0 01-.714.574c-.27.159-.57.28-.896.364a3.72 3.72 0 01-1.022.14zm2.688-4.172a2.8 2.8 0 00-.28-1.064 2.714 2.714 0 00-1.414-1.386 2.513 2.513 0 00-.994-.196c-.355 0-.69.065-1.008.196a2.673 2.673 0 00-.84.546 2.839 2.839 0 00-.574.84c-.14.327-.224.681-.252 1.064h5.362zm7.599-4.83v-1.316h.812v1.316h-.812zm2.086 0v-1.316h.812v1.316h-.812zm-.588 9.002a3.627 3.627 0 01-1.47-.294 3.757 3.757 0 01-1.148-.826 4.037 4.037 0 01-.77-1.218 4.035 4.035 0 01-.266-1.47c0-.513.089-.994.266-1.442.187-.457.439-.854.756-1.19a3.535 3.535 0 011.162-.812 3.456 3.456 0 011.456-.308c.532 0 1.017.103 1.456.308.448.196.831.467 1.148.812a3.851 3.851 0 011.008 2.618v.224a.576.576 0 01-.014.154h-6.244c.028.392.117.756.266 1.092.159.327.359.611.602.854s.518.434.826.574a2.613 2.613 0 001.708.098c.233-.065.448-.154.644-.266.196-.112.373-.247.532-.406.159-.168.28-.35.364-.546l.826.224a2.518 2.518 0 01-.476.742 3.6 3.6 0 01-.714.574c-.271.159-.569.28-.896.364-.327.093-.667.14-1.022.14zm2.688-4.172a2.793 2.793 0 00-.28-1.064 2.7 2.7 0 00-.588-.84 2.511 2.511 0 00-.826-.546 2.511 2.511 0 00-.994-.196c-.355 0-.691.065-1.008.196a2.682 2.682 0 00-.84.546 2.84 2.84 0 00-.574.84c-.14.327-.224.681-.252 1.064h5.362zm2.69-3.262l1.904 3.276h1.4v-3.276h.952v3.276h1.4l1.904-3.276h1.05l-2.156 3.528 2.408 3.766h-1.078l-1.988-3.29h-1.54V206h-.952v-3.29h-1.554l-1.988 3.29h-1.078l2.394-3.766-2.156-3.528h1.078zm11.031 5.95l4.354-5.95h.77V206h-.938v-5.838l-4.27 5.838h-.854v-7.294h.938v5.95zm11.577-5.95h1.064l-2.758 3.528 2.996 3.766h-1.064l-2.576-3.332h-1.036V206h-.938v-7.294h.938v3.22h.952l2.422-3.22zm4.221 7.434c-.345 0-.667-.056-.966-.168a2.645 2.645 0 01-.77-.49 2.27 2.27 0 01-.504-.714 2.236 2.236 0 01-.182-.896c0-.317.075-.611.224-.882.15-.271.36-.504.63-.7a2.99 2.99 0 01.966-.448 4.278 4.278 0 011.232-.168c.374 0 .752.033 1.134.098.383.065.724.159 1.022.28v-.658c0-.644-.182-1.153-.546-1.526-.364-.383-.868-.574-1.512-.574-.373 0-.756.075-1.148.224a5.537 5.537 0 00-1.19.644l-.336-.63c.943-.635 1.858-.952 2.744-.952.915 0 1.634.257 2.156.77.523.513.784 1.223.784 2.128v3.29c0 .261.117.392.35.392v.84c-.158.028-.28.042-.364.042-.242 0-.434-.061-.574-.182-.13-.121-.2-.289-.21-.504l-.028-.574c-.336.439-.76.775-1.274 1.008-.504.233-1.05.35-1.638.35zm.224-.728c.495 0 .948-.093 1.358-.28.42-.187.738-.434.952-.742a.796.796 0 00.182-.266.681.681 0 00.07-.28v-1.19a5.766 5.766 0 00-2.03-.378c-.672 0-1.218.14-1.638.42-.42.28-.63.649-.63 1.106 0 .224.042.434.126.63.094.196.215.369.364.518a1.876 1.876 0 001.246.462zm5.445.588v-1.372h.826V206h-.826zm10.575.07a4.31 4.31 0 01-1.904-.42 4.859 4.859 0 01-1.47-1.134 5.233 5.233 0 01-.952-1.624 5.336 5.336 0 01.014-3.766 5.345 5.345 0 01.994-1.61c.42-.467.914-.835 1.484-1.106a4.128 4.128 0 011.848-.42c.69 0 1.32.149 1.89.448a4.582 4.582 0 011.47 1.148c.41.476.728 1.017.952 1.624a5.184 5.184 0 01-.028 3.738 5.154 5.154 0 01-.98 1.61 4.815 4.815 0 01-1.47 1.106 4.248 4.248 0 01-1.848.406zm-3.682-5.04c0 .541.088 1.064.266 1.568.177.495.429.938.756 1.33.326.383.714.691 1.162.924.448.224.947.336 1.498.336.56 0 1.068-.121 1.526-.364.457-.243.844-.56 1.162-.952.317-.392.56-.835.728-1.33a4.46 4.46 0 00-.014-3.066 4.174 4.174 0 00-.756-1.33 3.672 3.672 0 00-1.162-.91 3.169 3.169 0 00-1.484-.35 3.2 3.2 0 00-1.526.364 3.541 3.541 0 00-1.162.938 4.493 4.493 0 00-.742 1.33 4.675 4.675 0 00-.252 1.512zm10.933.826h4.088v-3.15h.938V206h-.938v-3.346h-4.088V206h-.938v-7.294h.938v3.15zm14.322-3.15a1.773 1.773 0 011.288.532c.168.159.294.345.378.56.094.215.14.448.14.7 0 .168-.023.336-.07.504a1.938 1.938 0 01-.182.49 1.943 1.943 0 01-.322.42 1.56 1.56 0 01-.462.294c.411.112.733.327.966.644.234.317.35.7.35 1.148 0 .299-.056.569-.168.812a1.756 1.756 0 01-.448.63 2.05 2.05 0 01-.672.42c-.261.093-.546.14-.854.14h-3.514v-7.294h3.57zm-.378 3.22c.383 0 .686-.121.91-.364.224-.243.336-.551.336-.924 0-.327-.093-.611-.28-.854-.186-.243-.476-.364-.868-.364h-2.366v2.506h2.268zm.224 3.36c.196 0 .374-.037.532-.112.168-.075.308-.173.42-.294a1.59 1.59 0 00.266-.434 1.3 1.3 0 00.098-.504c0-.336-.116-.635-.35-.896-.224-.261-.536-.392-.938-.392h-2.52v2.632h2.492zm3.367-2.954c0-.513.088-.999.266-1.456.177-.457.424-.854.742-1.19a3.524 3.524 0 011.162-.812 3.66 3.66 0 011.484-.294c.69 0 1.292.159 1.806.476.513.308.9.728 1.162 1.26l-.924.294a2.165 2.165 0 00-.868-.868 2.35 2.35 0 00-1.218-.322c-.374 0-.724.075-1.05.224a2.7 2.7 0 00-.84.616c-.234.252-.42.555-.56.91a3.33 3.33 0 00-.196 1.162c0 .411.07.798.21 1.162.14.364.331.681.574.952.242.261.522.471.84.63a2.466 2.466 0 001.722.126c.233-.065.448-.154.644-.266a2.46 2.46 0 00.504-.406c.14-.149.238-.308.294-.476l.938.28a2.488 2.488 0 01-.448.728c-.196.215-.43.406-.7.574-.262.159-.556.28-.882.364-.318.093-.649.14-.994.14a3.627 3.627 0 01-1.47-.294 3.7 3.7 0 01-1.162-.826 4.017 4.017 0 01-.77-1.218 4.014 4.014 0 01-.266-1.47zm11.255 3.808a3.627 3.627 0 01-1.47-.294 3.757 3.757 0 01-1.148-.826 4.037 4.037 0 01-.77-1.218 4.035 4.035 0 01-.266-1.47c0-.513.089-.994.266-1.442.187-.457.439-.854.756-1.19a3.535 3.535 0 011.162-.812 3.456 3.456 0 011.456-.308c.532 0 1.017.103 1.456.308.448.196.831.467 1.148.812a3.851 3.851 0 011.008 2.618v.224a.576.576 0 01-.014.154h-6.244c.028.392.117.756.266 1.092.159.327.359.611.602.854s.518.434.826.574a2.613 2.613 0 001.708.098c.233-.065.448-.154.644-.266.196-.112.373-.247.532-.406.159-.168.28-.35.364-.546l.826.224a2.518 2.518 0 01-.476.742 3.6 3.6 0 01-.714.574c-.271.159-.569.28-.896.364-.327.093-.667.14-1.022.14zm2.688-4.172a2.793 2.793 0 00-.28-1.064 2.7 2.7 0 00-.588-.84 2.511 2.511 0 00-.826-.546 2.511 2.511 0 00-.994-.196c-.355 0-.691.065-1.008.196a2.682 2.682 0 00-.84.546 2.84 2.84 0 00-.574.84c-.14.327-.224.681-.252 1.064h5.362zm6.845-2.534h-3.514V206h-.938v-7.294h4.452v.728zm-.547 5.74h.42c.205-.047.382-.149.532-.308.158-.168.298-.42.42-.756.121-.345.228-.793.322-1.344.093-.56.191-1.255.294-2.086l.224-1.974h4.27v6.468h.896v3.08h-.84V206h-5.74v2.254h-.798v-3.08zm5.558 0v-5.712h-2.464l-.21 1.624c-.159 1.157-.332 2.063-.518 2.716-.178.653-.392 1.111-.644 1.372h3.836zm5.154.966c-.346 0-.668-.056-.966-.168a2.632 2.632 0 01-.77-.49 2.238 2.238 0 01-.504-.714 2.219 2.219 0 01-.182-.896c0-.317.074-.611.224-.882.149-.271.359-.504.63-.7a2.97 2.97 0 01.966-.448 4.273 4.273 0 011.232-.168c.373 0 .751.033 1.134.098.382.065.723.159 1.022.28v-.658c0-.644-.182-1.153-.546-1.526-.364-.383-.868-.574-1.512-.574-.374 0-.756.075-1.148.224a5.514 5.514 0 00-1.19.644l-.336-.63c.942-.635 1.857-.952 2.744-.952.914 0 1.633.257 2.156.77.522.513.784 1.223.784 2.128v3.29c0 .261.116.392.35.392v.84c-.159.028-.28.042-.364.042-.243 0-.434-.061-.574-.182-.131-.121-.201-.289-.21-.504l-.028-.574a3.292 3.292 0 01-1.274 1.008c-.504.233-1.05.35-1.638.35zm.224-.728c.494 0 .947-.093 1.358-.28.42-.187.737-.434.952-.742a.811.811 0 00.182-.266.697.697 0 00.07-.28v-1.19a5.817 5.817 0 00-2.03-.378c-.672 0-1.218.14-1.638.42-.42.28-.63.649-.63 1.106 0 .224.042.434.126.63.093.196.214.369.364.518.158.14.345.252.56.336.214.084.443.126.686.126zm12.765-6.706a1.78 1.78 0 011.288.532c.168.159.294.345.378.56.093.215.14.448.14.7 0 .168-.024.336-.07.504a1.977 1.977 0 01-.182.49 1.975 1.975 0 01-.322.42 1.585 1.585 0 01-.462.294c.41.112.732.327.966.644.233.317.35.7.35 1.148 0 .299-.056.569-.168.812a1.768 1.768 0 01-.448.63 2.07 2.07 0 01-.672.42c-.262.093-.546.14-.854.14h-3.514v-7.294h3.57zm-.378 3.22c.382 0 .686-.121.91-.364.224-.243.336-.551.336-.924 0-.327-.094-.611-.28-.854-.187-.243-.476-.364-.868-.364h-2.366v2.506h2.268zm.224 3.36c.196 0 .373-.037.532-.112.168-.075.308-.173.42-.294.112-.131.2-.275.266-.434a1.32 1.32 0 00.098-.504c0-.336-.117-.635-.35-.896-.224-.261-.537-.392-.938-.392h-2.52v2.632h2.492zm3.884-6.58h.938v2.59h1.582a2.9 2.9 0 01.952.154c.298.103.56.252.784.448.224.196.401.443.532.742.13.289.196.625.196 1.008s-.066.723-.196 1.022a2.11 2.11 0 01-.532.728 2.335 2.335 0 01-.784.448 2.9 2.9 0 01-.952.154h-2.52v-7.294zm5.894 0h.924V206h-.924v-7.294zm-3.374 6.482c.485 0 .858-.135 1.12-.406.27-.28.406-.658.406-1.134 0-.476-.136-.849-.406-1.12-.271-.28-.644-.42-1.12-.42h-1.582v3.08h1.582zm5.903-2.856c0-.513.089-.999.266-1.456.178-.457.425-.854.742-1.19a3.535 3.535 0 011.162-.812 3.664 3.664 0 011.484-.294c.691 0 1.293.159 1.806.476.514.308.901.728 1.162 1.26l-.924.294a2.152 2.152 0 00-.868-.868 2.35 2.35 0 00-1.218-.322c-.373 0-.723.075-1.05.224a2.723 2.723 0 00-.84.616 2.88 2.88 0 00-.56.91c-.13.355-.196.742-.196 1.162 0 .411.07.798.21 1.162.14.364.332.681.574.952.243.261.523.471.84.63a2.47 2.47 0 001.722.126c.234-.065.448-.154.644-.266a2.46 2.46 0 00.504-.406c.14-.149.238-.308.294-.476l.938.28a2.467 2.467 0 01-.448.728 3.27 3.27 0 01-.7.574c-.261.159-.555.28-.882.364-.317.093-.648.14-.994.14a3.627 3.627 0 01-1.47-.294 3.712 3.712 0 01-1.162-.826 4.056 4.056 0 01-.77-1.218 4.035 4.035 0 01-.266-1.47zm7.126 2.87c.261-.019.49-.089.686-.21.196-.131.364-.359.504-.686.149-.336.275-.793.378-1.372.112-.579.219-1.33.322-2.254l.21-1.974h4.284V206h-.938v-6.538h-2.464l-.196 1.624a23.59 23.59 0 01-.406 2.408c-.149.625-.327 1.129-.532 1.512-.196.373-.434.639-.714.798-.28.149-.607.233-.98.252l-.154-.854zm8.499 2.73c.14.131.28.219.42.266.14.047.29.07.448.07a.618.618 0 00.35-.112c.122-.065.238-.187.35-.364.122-.168.243-.397.364-.686.122-.289.257-.658.406-1.106l-3.178-7.294h.98l2.702 6.412 2.506-6.412h.91l-3.402 8.498c-.14.364-.284.667-.434.91a2.53 2.53 0 01-.448.588 1.202 1.202 0 01-.49.308 1.538 1.538 0 01-.56.098c-.42 0-.742-.112-.966-.336l.042-.84zm7.602-1.932v-7.294h.938v6.468h2.744v-6.468h.938v6.468h2.744v-6.468h.938V206h-8.302zm12.252.14c-.345 0-.667-.056-.966-.168a2.645 2.645 0 01-.77-.49 2.238 2.238 0 01-.504-.714 2.236 2.236 0 01-.182-.896c0-.317.075-.611.224-.882.149-.271.359-.504.63-.7a2.99 2.99 0 01.966-.448 4.273 4.273 0 011.232-.168c.373 0 .751.033 1.134.098.383.065.723.159 1.022.28v-.658c0-.644-.182-1.153-.546-1.526-.364-.383-.868-.574-1.512-.574-.373 0-.756.075-1.148.224a5.514 5.514 0 00-1.19.644l-.336-.63c.943-.635 1.857-.952 2.744-.952.915 0 1.633.257 2.156.77.523.513.784 1.223.784 2.128v3.29c0 .261.117.392.35.392v.84c-.159.028-.28.042-.364.042-.243 0-.434-.061-.574-.182-.131-.121-.201-.289-.21-.504l-.028-.574a3.292 3.292 0 01-1.274 1.008c-.504.233-1.05.35-1.638.35zm.224-.728c.495 0 .947-.093 1.358-.28.42-.187.737-.434.952-.742a.796.796 0 00.182-.266.681.681 0 00.07-.28v-1.19a5.792 5.792 0 00-2.03-.378c-.672 0-1.218.14-1.638.42-.42.28-.63.649-.63 1.106 0 .224.042.434.126.63.093.196.215.369.364.518.159.14.345.252.56.336.215.084.443.126.686.126zm8.734.728a3.627 3.627 0 01-1.47-.294 3.77 3.77 0 01-1.148-.826 4.056 4.056 0 01-.77-1.218 4.035 4.035 0 01-.266-1.47c0-.513.089-.994.266-1.442.187-.457.439-.854.756-1.19a3.535 3.535 0 011.162-.812 3.46 3.46 0 011.456-.308c.532 0 1.018.103 1.456.308.448.196.831.467 1.148.812a3.83 3.83 0 011.008 2.618v.224a.536.536 0 01-.014.154h-6.244c.028.392.117.756.266 1.092.159.327.36.611.602.854.243.243.518.434.826.574a2.62 2.62 0 001.708.098c.234-.065.448-.154.644-.266.196-.112.374-.247.532-.406.159-.168.28-.35.364-.546l.826.224c-.112.271-.27.518-.476.742a3.6 3.6 0 01-.714.574c-.27.159-.569.28-.896.364a3.71 3.71 0 01-1.022.14zm2.688-4.172a2.793 2.793 0 00-.28-1.064 2.7 2.7 0 00-.588-.84 2.5 2.5 0 00-.826-.546 2.511 2.511 0 00-.994-.196c-.354 0-.69.065-1.008.196a2.682 2.682 0 00-.84.546 2.86 2.86 0 00-.574.84c-.14.327-.224.681-.252 1.064h5.362zm4.795 4.032h-.924v-6.468h-2.562v-.826h6.048v.826h-2.562V206zm3.385 1.134l.238-1.176h-.322v-1.33h.924v1.33l-.35 1.176h-.49zm7.511-5.278h4.088v-3.15h.938V206h-.938v-3.346h-4.088V206h-.938v-7.294h.938v3.15zm10.291 4.284a3.627 3.627 0 01-1.47-.294 3.77 3.77 0 01-1.148-.826 4.056 4.056 0 01-.77-1.218 4.035 4.035 0 01-.266-1.47c0-.513.089-.994.266-1.442.187-.457.439-.854.756-1.19a3.535 3.535 0 011.162-.812 3.46 3.46 0 011.456-.308c.532 0 1.018.103 1.456.308.448.196.831.467 1.148.812a3.83 3.83 0 011.008 2.618v.224a.536.536 0 01-.014.154h-6.244c.028.392.117.756.266 1.092.159.327.36.611.602.854.243.243.518.434.826.574a2.62 2.62 0 001.708.098c.234-.065.448-.154.644-.266.196-.112.374-.247.532-.406.159-.168.28-.35.364-.546l.826.224c-.112.271-.27.518-.476.742a3.6 3.6 0 01-.714.574c-.27.159-.569.28-.896.364a3.71 3.71 0 01-1.022.14zm2.688-4.172a2.793 2.793 0 00-.28-1.064 2.7 2.7 0 00-.588-.84 2.5 2.5 0 00-.826-.546 2.511 2.511 0 00-.994-.196c-.354 0-.69.065-1.008.196a2.682 2.682 0 00-.84.546 2.86 2.86 0 00-.574.84c-.14.327-.224.681-.252 1.064h5.362zm9.518-4.998c-.822.187-1.475.56-1.96 1.12-.476.551-.775 1.335-.896 2.352a3.08 3.08 0 011.078-1.036c.429-.243.924-.364 1.484-.364.476 0 .91.089 1.302.266.392.177.728.425 1.008.742.289.308.508.681.658 1.12.158.439.238.919.238 1.442 0 .523-.08 1.003-.238 1.442a3.137 3.137 0 01-.686 1.106 3.203 3.203 0 01-1.092.728c-.42.168-.896.252-1.428.252-1.074 0-1.89-.378-2.45-1.134-.56-.756-.84-1.829-.84-3.22 0-.849.084-1.596.252-2.24.177-.644.424-1.195.742-1.652.326-.467.723-.84 1.19-1.12a5.316 5.316 0 011.582-.644l2.184-.504.182.798-2.31.546zm-2.842 5.6c0 .392.056.761.168 1.106.112.336.27.63.476.882.214.243.466.434.756.574.298.14.63.21.994.21s.69-.065.98-.196c.298-.14.55-.331.756-.574.214-.243.378-.527.49-.854.112-.336.168-.7.168-1.092 0-.831-.22-1.489-.658-1.974-.439-.485-1.032-.728-1.778-.728a2.44 2.44 0 00-.952.182c-.29.121-.537.299-.742.532a2.467 2.467 0 00-.49.826 3.399 3.399 0 00-.168 1.106zm7.106 5.362c.14.131.28.219.42.266.14.047.289.07.448.07a.62.62 0 00.35-.112c.121-.065.238-.187.35-.364.121-.168.242-.397.364-.686.121-.289.256-.658.406-1.106l-3.178-7.294h.98l2.702 6.412 2.506-6.412h.91l-3.402 8.498c-.14.364-.285.667-.434.91-.14.243-.29.439-.448.588-.15.149-.313.252-.49.308a1.542 1.542 0 01-.56.098c-.42 0-.742-.112-.966-.336l.042-.84zm6.037-2.758h.42c.206-.047.383-.149.532-.308.159-.168.299-.42.42-.756.122-.345.229-.793.322-1.344.094-.56.192-1.255.294-2.086l.224-1.974h4.27v6.468h.896v3.08h-.84V206h-5.74v2.254h-.798v-3.08zm5.558 0v-5.712h-2.464l-.21 1.624c-.158 1.157-.331 2.063-.518 2.716-.177.653-.392 1.111-.644 1.372h3.836zm6.388.966a3.627 3.627 0 01-1.47-.294 3.77 3.77 0 01-1.148-.826 4.056 4.056 0 01-.77-1.218 4.035 4.035 0 01-.266-1.47c0-.513.089-.994.266-1.442.187-.457.439-.854.756-1.19a3.535 3.535 0 011.162-.812 3.46 3.46 0 011.456-.308c.532 0 1.018.103 1.456.308.448.196.831.467 1.148.812a3.83 3.83 0 011.008 2.618v.224a.536.536 0 01-.014.154h-6.244c.028.392.117.756.266 1.092.159.327.36.611.602.854.243.243.518.434.826.574a2.62 2.62 0 001.708.098c.234-.065.448-.154.644-.266.196-.112.374-.247.532-.406.159-.168.28-.35.364-.546l.826.224c-.112.271-.27.518-.476.742a3.6 3.6 0 01-.714.574c-.27.159-.569.28-.896.364a3.71 3.71 0 01-1.022.14zm2.688-4.172a2.793 2.793 0 00-.28-1.064 2.7 2.7 0 00-.588-.84 2.5 2.5 0 00-.826-.546 2.511 2.511 0 00-.994-.196c-.354 0-.69.065-1.008.196a2.682 2.682 0 00-.84.546 2.86 2.86 0 00-.574.84c-.14.327-.224.681-.252 1.064h5.362zm4.795 4.032h-.924v-6.468h-2.562v-.826h6.048v.826h-2.562V206zm11.165-2.38l2.73-4.914h.924V206h-.924v-5.6l-2.45 4.382h-.56l-2.464-4.382v5.6h-.938v-7.294h.952l2.73 4.914zm7.109-.518a2.221 2.221 0 01-1.106-.714c-.289-.355-.434-.826-.434-1.414 0-.327.061-.63.182-.91a2.161 2.161 0 011.246-1.19 2.77 2.77 0 01.98-.168h2.604V206h-.938v-2.772h-1.582L366.332 206h-1.078l1.974-2.898zm2.534-.7v-2.87h-1.624c-.196 0-.387.033-.574.098a1.394 1.394 0 00-.476.294 1.348 1.348 0 00-.462 1.05c0 .429.126.775.378 1.036.261.261.602.392 1.022.392h1.736zm3.054 5.53c.14.131.28.219.42.266.14.047.289.07.448.07a.62.62 0 00.35-.112c.121-.065.238-.187.35-.364.121-.168.242-.397.364-.686.121-.289.256-.658.406-1.106l-3.178-7.294h.98l2.702 6.412 2.506-6.412h.91l-3.402 8.498c-.14.364-.285.667-.434.91-.14.243-.29.439-.448.588-.15.149-.313.252-.49.308a1.542 1.542 0 01-.56.098c-.42 0-.742-.112-.966-.336l.042-.84zm11.914-9.226h1.064l-2.758 3.528 2.996 3.766h-1.064l-2.576-3.332h-1.036V206h-.938v-7.294h.938v3.22h.952l2.422-3.22zm4.22 7.434c-.345 0-.667-.056-.966-.168a2.645 2.645 0 01-.77-.49 2.27 2.27 0 01-.504-.714 2.236 2.236 0 01-.182-.896c0-.317.075-.611.224-.882.15-.271.36-.504.63-.7a2.99 2.99 0 01.966-.448 4.278 4.278 0 011.232-.168c.374 0 .752.033 1.134.098.383.065.724.159 1.022.28v-.658c0-.644-.182-1.153-.546-1.526-.364-.383-.868-.574-1.512-.574-.373 0-.756.075-1.148.224a5.537 5.537 0 00-1.19.644l-.336-.63c.943-.635 1.858-.952 2.744-.952.915 0 1.634.257 2.156.77.523.513.784 1.223.784 2.128v3.29c0 .261.117.392.35.392v.84c-.158.028-.28.042-.364.042-.242 0-.434-.061-.574-.182-.13-.121-.2-.289-.21-.504l-.028-.574c-.336.439-.76.775-1.274 1.008-.504.233-1.05.35-1.638.35zm.224-.728c.495 0 .948-.093 1.358-.28.42-.187.738-.434.952-.742a.796.796 0 00.182-.266.681.681 0 00.07-.28v-1.19a5.766 5.766 0 00-2.03-.378c-.672 0-1.218.14-1.638.42-.42.28-.63.649-.63 1.106 0 .224.042.434.126.63.094.196.215.369.364.518a1.876 1.876 0 001.246.462zm8.11.588h-.924v-6.468h-2.562v-.826h6.048v.826h-2.562V206zm3.915-7.294h.938v2.59h1.582a2.9 2.9 0 01.952.154c.298.103.56.252.784.448.224.196.401.443.532.742.13.289.196.625.196 1.008s-.066.723-.196 1.022a2.11 2.11 0 01-.532.728 2.335 2.335 0 01-.784.448 2.9 2.9 0 01-.952.154h-2.52v-7.294zm2.52 6.482c.485 0 .858-.135 1.12-.406.27-.28.406-.658.406-1.134 0-.476-.136-.849-.406-1.12-.271-.28-.644-.42-1.12-.42h-1.582v3.08h1.582zm11.099-6.482a1.773 1.773 0 011.288.532c.168.159.294.345.378.56.094.215.14.448.14.7 0 .168-.023.336-.07.504a1.938 1.938 0 01-.182.49 1.943 1.943 0 01-.322.42 1.56 1.56 0 01-.462.294c.411.112.733.327.966.644.234.317.35.7.35 1.148 0 .299-.056.569-.168.812a1.756 1.756 0 01-.448.63 2.05 2.05 0 01-.672.42c-.261.093-.546.14-.854.14h-3.514v-7.294h3.57zm-.378 3.22c.383 0 .686-.121.91-.364.224-.243.336-.551.336-.924 0-.327-.093-.611-.28-.854-.186-.243-.476-.364-.868-.364h-2.366v2.506h2.268zm.224 3.36c.196 0 .374-.037.532-.112.168-.075.308-.173.42-.294a1.59 1.59 0 00.266-.434 1.3 1.3 0 00.098-.504c0-.336-.116-.635-.35-.896-.224-.261-.536-.392-.938-.392h-2.52v2.632h2.492zm10.267-3.654c.457 0 .882.079 1.274.238.392.149.732.364 1.022.644.298.28.532.616.7 1.008.168.383.252.807.252 1.274 0 .495-.094.943-.28 1.344a2.895 2.895 0 01-.742 1.036 3.266 3.266 0 01-1.092.672c-.42.159-.868.238-1.344.238a3.71 3.71 0 01-1.022-.14 3.211 3.211 0 01-.882-.378 3.815 3.815 0 01-.742-.602 3.218 3.218 0 01-.532-.784l.63-.476c.261.457.616.826 1.064 1.106.457.28.956.42 1.498.42.345 0 .667-.061.966-.182.298-.112.56-.275.784-.49.224-.215.396-.471.518-.77a2.43 2.43 0 00.196-.98c0-.345-.061-.658-.182-.938a2.198 2.198 0 00-.504-.742 2.274 2.274 0 00-.756-.476 2.579 2.579 0 00-.938-.168c-.439 0-.854.098-1.246.294a2.346 2.346 0 00-.938.826h-.882a43.023 43.023 0 01.21-1.078l.182-.896.196-1.008a400.9 400.9 0 00.518-2.618h4.802v.882h-4.088l-.686 3.57c.242-.261.536-.462.882-.602a2.968 2.968 0 011.162-.224zm8.369 6.3c.14.131.28.219.42.266.14.047.289.07.448.07a.62.62 0 00.35-.112c.121-.065.238-.187.35-.364.121-.168.243-.397.364-.686.121-.289.257-.658.406-1.106l-3.178-7.294h.98l2.702 6.412 2.506-6.412h.91l-3.402 8.498c-.14.364-.285.667-.434.91a2.53 2.53 0 01-.448.588 1.209 1.209 0 01-.49.308 1.542 1.542 0 01-.56.098c-.42 0-.742-.112-.966-.336l.042-.84zM443.618 206h-.924v-6.468h-2.562v-.826h6.048v.826h-2.562V206zm7.639.14c-.616 0-1.162-.154-1.638-.462a3.82 3.82 0 01-1.134-1.19v4.494h-.952v-10.276h.854v1.414a3.466 3.466 0 011.162-1.106 2.94 2.94 0 011.554-.434c.504 0 .966.107 1.386.322.42.205.784.485 1.092.84.308.345.546.747.714 1.204.177.457.266.929.266 1.414 0 .513-.08.999-.238 1.456a3.664 3.664 0 01-.686 1.204c-.29.345-.64.621-1.05.826a2.993 2.993 0 01-1.33.294zm-.266-.84a2.24 2.24 0 001.064-.252c.326-.168.602-.387.826-.658.233-.28.41-.593.532-.938.121-.355.182-.719.182-1.092a3.105 3.105 0 00-.784-2.058 2.706 2.706 0 00-.868-.644 2.401 2.401 0 00-1.064-.238c-.243 0-.5.051-.77.154a2.954 2.954 0 00-.742.392c-.224.159-.42.35-.588.574a1.53 1.53 0 00-.294.686v2.24c.112.261.252.504.42.728.177.224.373.42.588.588.224.159.462.285.714.378.252.093.513.14.784.14zm7.03.84c-.346 0-.668-.056-.966-.168a2.632 2.632 0 01-.77-.49 2.238 2.238 0 01-.504-.714 2.219 2.219 0 01-.182-.896c0-.317.074-.611.224-.882.149-.271.359-.504.63-.7a2.97 2.97 0 01.966-.448 4.273 4.273 0 011.232-.168c.373 0 .751.033 1.134.098.382.065.723.159 1.022.28v-.658c0-.644-.182-1.153-.546-1.526-.364-.383-.868-.574-1.512-.574-.374 0-.756.075-1.148.224a5.514 5.514 0 00-1.19.644l-.336-.63c.942-.635 1.857-.952 2.744-.952.914 0 1.633.257 2.156.77.522.513.784 1.223.784 2.128v3.29c0 .261.116.392.35.392v.84c-.159.028-.28.042-.364.042-.243 0-.434-.061-.574-.182-.131-.121-.201-.289-.21-.504l-.028-.574a3.292 3.292 0 01-1.274 1.008c-.504.233-1.05.35-1.638.35zm.224-.728c.494 0 .947-.093 1.358-.28.42-.187.737-.434.952-.742a.811.811 0 00.182-.266.697.697 0 00.07-.28v-1.19a5.817 5.817 0 00-2.03-.378c-.672 0-1.218.14-1.638.42-.42.28-.63.649-.63 1.106 0 .224.042.434.126.63.093.196.214.369.364.518.158.14.345.252.56.336.214.084.443.126.686.126zm10.105-.756l4.354-5.95h.77V206h-.938v-5.838l-4.27 5.838h-.854v-7.294h.938v5.95zm10.833-5.95h.938v6.468h3.57v-6.468h.924v6.468h1.218v3.08h-.826V206h-5.824v-7.294zm9.791 7.434c-.345 0-.667-.056-.966-.168a2.645 2.645 0 01-.77-.49 2.238 2.238 0 01-.504-.714 2.236 2.236 0 01-.182-.896c0-.317.075-.611.224-.882.149-.271.359-.504.63-.7a2.99 2.99 0 01.966-.448 4.273 4.273 0 011.232-.168c.373 0 .751.033 1.134.098.383.065.723.159 1.022.28v-.658c0-.644-.182-1.153-.546-1.526-.364-.383-.868-.574-1.512-.574-.373 0-.756.075-1.148.224a5.514 5.514 0 00-1.19.644l-.336-.63c.943-.635 1.857-.952 2.744-.952.915 0 1.633.257 2.156.77.523.513.784 1.223.784 2.128v3.29c0 .261.117.392.35.392v.84c-.159.028-.28.042-.364.042-.243 0-.434-.061-.574-.182-.131-.121-.201-.289-.21-.504l-.028-.574a3.292 3.292 0 01-1.274 1.008c-.504.233-1.05.35-1.638.35zm.224-.728c.495 0 .947-.093 1.358-.28.42-.187.737-.434.952-.742a.796.796 0 00.182-.266.681.681 0 00.07-.28v-1.19a5.792 5.792 0 00-2.03-.378c-.672 0-1.218.14-1.638.42-.42.28-.63.649-.63 1.106 0 .224.042.434.126.63.093.196.215.369.364.518.159.14.345.252.56.336.215.084.443.126.686.126zm9.322.728c-.616 0-1.162-.154-1.638-.462a3.843 3.843 0 01-1.134-1.19v4.494h-.952v-10.276h.854v1.414a3.475 3.475 0 011.162-1.106 2.94 2.94 0 011.554-.434c.504 0 .966.107 1.386.322.42.205.784.485 1.092.84.308.345.546.747.714 1.204.178.457.266.929.266 1.414 0 .513-.079.999-.238 1.456a3.63 3.63 0 01-.686 1.204 3.242 3.242 0 01-1.05.826 2.987 2.987 0 01-1.33.294zm-.266-.84c.392 0 .747-.084 1.064-.252.327-.168.602-.387.826-.658.234-.28.411-.593.532-.938.122-.355.182-.719.182-1.092a3.085 3.085 0 00-.784-2.058 2.695 2.695 0 00-.868-.644 2.395 2.395 0 00-1.064-.238 2.17 2.17 0 00-.77.154 2.989 2.989 0 00-.742.392c-.224.159-.42.35-.588.574a1.552 1.552 0 00-.294.686v2.24c.112.261.252.504.42.728.178.224.374.42.588.588.224.159.462.285.714.378.252.093.514.14.784.14zm7.03.84c-.345 0-.667-.056-.966-.168a2.645 2.645 0 01-.77-.49 2.27 2.27 0 01-.504-.714 2.236 2.236 0 01-.182-.896c0-.317.075-.611.224-.882.15-.271.36-.504.63-.7a2.99 2.99 0 01.966-.448 4.278 4.278 0 011.232-.168c.374 0 .752.033 1.134.098.383.065.724.159 1.022.28v-.658c0-.644-.182-1.153-.546-1.526-.364-.383-.868-.574-1.512-.574-.373 0-.756.075-1.148.224a5.537 5.537 0 00-1.19.644l-.336-.63c.943-.635 1.858-.952 2.744-.952.915 0 1.634.257 2.156.77.523.513.784 1.223.784 2.128v3.29c0 .261.117.392.35.392v.84c-.158.028-.28.042-.364.042-.242 0-.434-.061-.574-.182-.13-.121-.2-.289-.21-.504l-.028-.574c-.336.439-.76.775-1.274 1.008-.504.233-1.05.35-1.638.35zm.224-.728c.495 0 .948-.093 1.358-.28.42-.187.738-.434.952-.742a.796.796 0 00.182-.266.681.681 0 00.07-.28v-1.19a5.766 5.766 0 00-2.03-.378c-.672 0-1.218.14-1.638.42-.42.28-.63.649-.63 1.106 0 .224.042.434.126.63.094.196.215.369.364.518a1.876 1.876 0 001.246.462zm11.339.588h-.924v-6.468h-3.878V206h-.938v-7.294h5.74V206zm3.969.14c-.346 0-.668-.056-.966-.168a2.632 2.632 0 01-.77-.49 2.238 2.238 0 01-.504-.714 2.219 2.219 0 01-.182-.896c0-.317.074-.611.224-.882.149-.271.359-.504.63-.7a2.97 2.97 0 01.966-.448 4.273 4.273 0 011.232-.168c.373 0 .751.033 1.134.098.382.065.723.159 1.022.28v-.658c0-.644-.182-1.153-.546-1.526-.364-.383-.868-.574-1.512-.574-.374 0-.756.075-1.148.224a5.514 5.514 0 00-1.19.644l-.336-.63c.942-.635 1.857-.952 2.744-.952.914 0 1.633.257 2.156.77.522.513.784 1.223.784 2.128v3.29c0 .261.116.392.35.392v.84c-.159.028-.28.042-.364.042-.243 0-.434-.061-.574-.182-.131-.121-.201-.289-.21-.504l-.028-.574a3.292 3.292 0 01-1.274 1.008c-.504.233-1.05.35-1.638.35zm.224-.728c.494 0 .947-.093 1.358-.28.42-.187.737-.434.952-.742a.811.811 0 00.182-.266.697.697 0 00.07-.28v-1.19a5.817 5.817 0 00-2.03-.378c-.672 0-1.218.14-1.638.42-.42.28-.63.649-.63 1.106 0 .224.042.434.126.63.093.196.214.369.364.518.158.14.345.252.56.336.214.084.443.126.686.126zm8.109.588h-.924v-6.468h-2.562v-.826h6.048v.826h-2.562V206zm3.915-7.294h.938v2.59h1.582a2.9 2.9 0 01.952.154c.299.103.56.252.784.448.224.196.401.443.532.742.131.289.196.625.196 1.008s-.065.723-.196 1.022a2.11 2.11 0 01-.532.728 2.326 2.326 0 01-.784.448 2.9 2.9 0 01-.952.154h-2.52v-7.294zm2.52 6.482c.485 0 .859-.135 1.12-.406.271-.28.406-.658.406-1.134 0-.476-.135-.849-.406-1.12-.271-.28-.644-.42-1.12-.42h-1.582v3.08h1.582zm11.099-6.482a1.773 1.773 0 011.288.532c.168.159.294.345.378.56.094.215.14.448.14.7 0 .168-.023.336-.07.504a1.938 1.938 0 01-.182.49 1.943 1.943 0 01-.322.42 1.56 1.56 0 01-.462.294c.411.112.733.327.966.644.234.317.35.7.35 1.148 0 .299-.056.569-.168.812a1.756 1.756 0 01-.448.63 2.05 2.05 0 01-.672.42c-.261.093-.546.14-.854.14h-3.514v-7.294h3.57zm-.378 3.22c.383 0 .686-.121.91-.364.224-.243.336-.551.336-.924 0-.327-.093-.611-.28-.854-.186-.243-.476-.364-.868-.364h-2.366v2.506h2.268zm.224 3.36c.196 0 .374-.037.532-.112.168-.075.308-.173.42-.294a1.59 1.59 0 00.266-.434 1.3 1.3 0 00.098-.504c0-.336-.116-.635-.35-.896-.224-.261-.536-.392-.938-.392h-2.52v2.632h2.492zm5.705.854c-.346 0-.668-.056-.966-.168a2.632 2.632 0 01-.77-.49 2.238 2.238 0 01-.504-.714 2.219 2.219 0 01-.182-.896c0-.317.074-.611.224-.882.149-.271.359-.504.63-.7a2.97 2.97 0 01.966-.448 4.273 4.273 0 011.232-.168c.373 0 .751.033 1.134.098.382.065.723.159 1.022.28v-.658c0-.644-.182-1.153-.546-1.526-.364-.383-.868-.574-1.512-.574-.374 0-.756.075-1.148.224a5.514 5.514 0 00-1.19.644l-.336-.63c.942-.635 1.857-.952 2.744-.952.914 0 1.633.257 2.156.77.522.513.784 1.223.784 2.128v3.29c0 .261.116.392.35.392v.84c-.159.028-.28.042-.364.042-.243 0-.434-.061-.574-.182-.131-.121-.201-.289-.21-.504l-.028-.574a3.292 3.292 0 01-1.274 1.008c-.504.233-1.05.35-1.638.35zm.224-.728c.494 0 .947-.093 1.358-.28.42-.187.737-.434.952-.742a.811.811 0 00.182-.266.697.697 0 00.07-.28v-1.19a5.817 5.817 0 00-2.03-.378c-.672 0-1.218.14-1.638.42-.42.28-.63.649-.63 1.106 0 .224.042.434.126.63.093.196.214.369.364.518.158.14.345.252.56.336.214.084.443.126.686.126zm5.598.588v-7.294h.938v6.468h2.744v-6.468h.938v6.468h2.744v-6.468h.938V206h-8.302zm10.418 1.932c.14.131.28.219.42.266.14.047.289.07.448.07a.62.62 0 00.35-.112c.121-.065.238-.187.35-.364.121-.168.242-.397.364-.686.121-.289.256-.658.406-1.106l-3.178-7.294h.98l2.702 6.412 2.506-6.412h.91l-3.402 8.498c-.14.364-.285.667-.434.91-.14.243-.29.439-.448.588-.15.149-.313.252-.49.308a1.542 1.542 0 01-.56.098c-.42 0-.742-.112-.966-.336l.042-.84zm14.852-4.312l2.73-4.914h.924V206h-.924v-5.6l-2.45 4.382h-.56l-2.464-4.382v5.6h-.938v-7.294h.952l2.73 4.914zm8.915 2.52a3.627 3.627 0 01-1.47-.294 3.757 3.757 0 01-1.148-.826 4.037 4.037 0 01-.77-1.218 4.035 4.035 0 01-.266-1.47c0-.513.089-.994.266-1.442.187-.457.439-.854.756-1.19a3.535 3.535 0 011.162-.812 3.456 3.456 0 011.456-.308c.532 0 1.017.103 1.456.308.448.196.831.467 1.148.812a3.851 3.851 0 011.008 2.618v.224a.576.576 0 01-.014.154h-6.244c.028.392.117.756.266 1.092.159.327.359.611.602.854s.518.434.826.574a2.613 2.613 0 001.708.098c.233-.065.448-.154.644-.266.196-.112.373-.247.532-.406.159-.168.28-.35.364-.546l.826.224a2.518 2.518 0 01-.476.742 3.6 3.6 0 01-.714.574c-.271.159-.569.28-.896.364-.327.093-.667.14-1.022.14zm2.688-4.172a2.793 2.793 0 00-.28-1.064 2.7 2.7 0 00-.588-.84 2.511 2.511 0 00-.826-.546 2.511 2.511 0 00-.994-.196c-.355 0-.691.065-1.008.196a2.682 2.682 0 00-.84.546 2.84 2.84 0 00-.574.84c-.14.327-.224.681-.252 1.064h5.362zm5.949-4.998c-.822.187-1.475.56-1.96 1.12-.476.551-.775 1.335-.896 2.352a3.08 3.08 0 011.078-1.036c.429-.243.924-.364 1.484-.364.476 0 .91.089 1.302.266.392.177.728.425 1.008.742.289.308.508.681.658 1.12.158.439.238.919.238 1.442 0 .523-.08 1.003-.238 1.442a3.137 3.137 0 01-.686 1.106 3.203 3.203 0 01-1.092.728c-.42.168-.896.252-1.428.252-1.074 0-1.89-.378-2.45-1.134-.56-.756-.84-1.829-.84-3.22 0-.849.084-1.596.252-2.24.177-.644.424-1.195.742-1.652.326-.467.723-.84 1.19-1.12a5.316 5.316 0 011.582-.644l2.184-.504.182.798-2.31.546zm-2.842 5.6c0 .392.056.761.168 1.106.112.336.27.63.476.882.214.243.466.434.756.574.298.14.63.21.994.21s.69-.065.98-.196c.298-.14.55-.331.756-.574.214-.243.378-.527.49-.854.112-.336.168-.7.168-1.092 0-.831-.22-1.489-.658-1.974-.439-.485-1.032-.728-1.778-.728a2.44 2.44 0 00-.952.182c-.29.121-.537.299-.742.532a2.467 2.467 0 00-.49.826 3.399 3.399 0 00-.168 1.106zm10.557 3.57a3.627 3.627 0 01-1.47-.294 3.745 3.745 0 01-1.148-.826 4.017 4.017 0 01-.77-1.218 4.014 4.014 0 01-.266-1.47c0-.513.088-.994.266-1.442a3.79 3.79 0 01.756-1.19 3.524 3.524 0 011.162-.812 3.456 3.456 0 011.456-.308c.532 0 1.017.103 1.456.308.448.196.83.467 1.148.812a3.834 3.834 0 011.008 2.618v.224a.576.576 0 01-.014.154h-6.244c.028.392.116.756.266 1.092.158.327.359.611.602.854.242.243.518.434.826.574a2.613 2.613 0 001.708.098c.233-.065.448-.154.644-.266.196-.112.373-.247.532-.406.158-.168.28-.35.364-.546l.826.224a2.518 2.518 0 01-.476.742 3.66 3.66 0 01-.714.574c-.271.159-.57.28-.896.364a3.72 3.72 0 01-1.022.14zm2.688-4.172a2.812 2.812 0 00-.28-1.064 2.734 2.734 0 00-.588-.84 2.522 2.522 0 00-.826-.546 2.515 2.515 0 00-.994-.196 2.66 2.66 0 00-1.848.742 2.822 2.822 0 00-.574.84c-.14.327-.224.681-.252 1.064h5.362zm1.276 3.234c.261-.019.49-.089.686-.21.196-.131.364-.359.504-.686.149-.336.275-.793.378-1.372.112-.579.219-1.33.322-2.254l.21-1.974h4.284V206h-.938v-6.538h-2.464l-.196 1.624a23.87 23.87 0 01-.406 2.408c-.15.625-.327 1.129-.532 1.512-.196.373-.434.639-.714.798-.28.149-.607.233-.98.252l-.154-.854zm8.513-6.496h.938v2.59h1.582a2.9 2.9 0 01.952.154c.299.103.56.252.784.448.224.196.401.443.532.742.131.289.196.625.196 1.008s-.065.723-.196 1.022a2.11 2.11 0 01-.532.728 2.326 2.326 0 01-.784.448 2.9 2.9 0 01-.952.154h-2.52v-7.294zm2.52 6.482c.485 0 .859-.135 1.12-.406.271-.28.406-.658.406-1.134 0-.476-.135-.849-.406-1.12-.271-.28-.644-.42-1.12-.42h-1.582v3.08h1.582zm3.779.812v-1.372h.826V206h-.826z" fill="#70908B"/><path d="M148.52 73.92c0-.16.16-.24.48-.24.24 0 .44.08.6.24.24.08.36.16.36.24-.8 6.24-1.2 11.92-1.2 17.04 0 .64-.12 1.12-.36 1.44-.24.24-.72.36-1.44.36H93.92c-.24 0-.36-.24-.36-.72s.12-.72.36-.72c2.56 0 4.4-.2 5.52-.6 1.2-.4 2-1.16 2.4-2.28.4-1.2.6-3 .6-5.4V27.72c0-2.4-.2-4.16-.6-5.28-.4-1.12-1.2-1.88-2.4-2.28-1.2-.48-3.04-.72-5.52-.72-.24 0-.36-.24-.36-.72s.12-.72.36-.72h50.88c.8 0 1.2.36 1.2 1.08l.24 15.96c0 .16-.24.28-.72.36-.4.08-.64 0-.72-.24-1.28-4.64-3.44-8.08-6.48-10.32-3.04-2.24-7.04-3.36-12-3.36h-3.6c-2.4 0-4.16.52-5.28 1.56s-1.68 2.64-1.68 4.8v24.48h9.96c4.64 0 8.2-.8 10.68-2.4 2.48-1.6 3.72-3.84 3.72-6.72 0-.24.2-.36.6-.36.48 0 .72.12.72.36l-.12 10.8.12 5.76c.16 2.72.24 4.88.24 6.48 0 .16-.24.24-.72.24s-.72-.08-.72-.24c0-3.28-1.28-5.84-3.84-7.68-2.48-1.92-6.08-2.88-10.8-2.88h-9.84V82.8c0 2.32.44 4.04 1.32 5.16.88 1.12 2.28 1.68 4.2 1.68h3.96c6.24 0 11.24-1.28 15-3.84 3.76-2.56 6.52-6.52 8.28-11.88zm129.451 17.64c.24 0 .36.24.36.72s-.12.72-.36.72h-18.48c-.96 0-1.84-.32-2.64-.96-.72-.64-2.08-2.32-4.08-5.04-1.92-2.8-5-7.52-9.24-14.16-3.44-5.44-6.12-9.32-8.04-11.64-1.92-2.32-3.8-3.88-5.64-4.68-1.84-.88-4.28-1.32-7.32-1.32v28.08c0 2.4.2 4.2.6 5.4.48 1.12 1.36 1.88 2.64 2.28 1.28.4 3.32.6 6.12.6.16 0 .24.24.24.72s-.08.72-.24.72c-2.96 0-5.28-.04-6.96-.12l-9.6-.12-8.76.12c-1.52.08-3.68.12-6.48.12-.16 0-.24-.24-.24-.72s.08-.72.24-.72c2.8 0 4.84-.2 6.12-.6 1.28-.4 2.16-1.16 2.64-2.28.48-1.2.72-3 .72-5.4V55.2c-3.04 0-5.48.44-7.32 1.32-1.84.8-3.72 2.36-5.64 4.68-1.92 2.32-4.6 6.2-8.04 11.64-4.24 6.64-7.36 11.36-9.36 14.16-1.92 2.72-3.28 4.4-4.08 5.04-.72.64-1.56.96-2.52.96h-18.48c-.24 0-.36-.24-.36-.72s.12-.72.36-.72c2.16-.08 4.16-.8 6-2.16 1.84-1.36 3.64-3.16 5.4-5.4 1.76-2.32 4.32-5.92 7.68-10.8l1.8-2.76c2.96-4.4 5.44-7.76 7.44-10.08 2.08-2.32 4.12-4 6.12-5.04s4.4-1.72 7.2-2.04l-16.56-20.4c-3.6-4.4-7.36-7.72-11.28-9.96-3.84-2.32-7.76-3.48-11.76-3.48-.16 0-.24-.24-.24-.72s.08-.72.24-.72l5.16.12c3.36.16 6.6.24 9.72.24 2.4 0 5.68-.08 9.84-.24l7.92-.12c.16 0 .24.24.24.72s-.08.72-.24.72c-2.32 0-4.08.52-5.28 1.56-1.12.96-1.68 2.32-1.68 4.08 0 3.12 1.8 7.24 5.4 12.36l11.28 15.6h2.88c3.28 0 6 .04 8.16.12V27.72c0-2.4-.24-4.16-.72-5.28s-1.36-1.88-2.64-2.28c-1.28-.48-3.28-.72-6-.72-.16 0-.24-.24-.24-.72s.08-.72.24-.72l6.6.12c3.52.16 6.36.24 8.52.24 2.48 0 5.72-.08 9.72-.24l6.84-.12c.16 0 .24.24.24.72s-.08.72-.24.72c-2.72 0-4.72.24-6 .72-1.28.48-2.16 1.32-2.64 2.52-.48 1.12-.72 2.88-.72 5.28v25.2c2.08-.08 4.8-.12 8.16-.12h2.88l10.92-15c3.76-5.2 5.64-9.52 5.64-12.96 0-1.76-.56-3.12-1.68-4.08-1.12-1.04-2.8-1.56-5.04-1.56-.24 0-.36-.24-.36-.72s.12-.72.36-.72l7.8.12c4.16.16 7.44.24 9.84.24 3.12 0 6.36-.08 9.72-.24l5.16-.12c.16 0 .24.24.24.72s-.08.72-.24.72c-4 0-7.96 1.16-11.88 3.48-3.84 2.24-7.56 5.56-11.16 9.96l-16.56 20.4c2.88.32 5.28 1 7.2 2.04 2 1.04 4 2.72 6 5.04 2 2.24 4.52 5.6 7.56 10.08l1.8 2.76c3.36 4.88 5.92 8.48 7.68 10.8 1.76 2.24 3.56 4.04 5.4 5.4 1.84 1.36 3.84 2.08 6 2.16zm86.841 0c.24 0 .36.24.36.72s-.12.72-.36.72c-2.8 0-5.04-.04-6.72-.12l-9.24-.12-10.8.12c-1.44.08-3.4.12-5.88.12-.24 0-.36-.24-.36-.72s.12-.72.36-.72c2.96 0 5.12-.2 6.48-.6 1.36-.4 2.28-1.16 2.76-2.28.48-1.12.72-2.92.72-5.4V34.2l-48 60.12c-.24.24-.84.36-1.8.36-1.52 0-2.28-.28-2.28-.84V27.72c0-2.4-.24-4.16-.72-5.28s-1.36-1.88-2.64-2.28c-1.28-.48-3.28-.72-6-.72-.24 0-.36-.24-.36-.72s.12-.72.36-.72l6.72.12c4 .16 7.08.24 9.24.24 3.2 0 6.8-.08 10.8-.24l5.88-.12c.24 0 .36.24.36.72s-.12.72-.36.72c-2.96 0-5.12.24-6.48.72-1.36.4-2.28 1.16-2.76 2.28-.48 1.12-.72 2.88-.72 5.28v49.56l48-60.12c.24-.24.84-.36 1.8-.36.56 0 1.08.08 1.56.24.48.16.72.36.72.6v65.64c0 2.4.24 4.2.72 5.4.48 1.12 1.36 1.88 2.64 2.28 1.28.4 3.28.6 6 .6zm84.917 0c.24 0 .36.24.36.72s-.12.72-.36.72h-18.48c-1.04 0-2-.32-2.88-.96-.8-.64-2.24-2.28-4.32-4.92-2.08-2.72-5.48-7.48-10.2-14.28l-3.24-4.56c-2.8-4.08-4.88-6.92-6.24-8.52-1.36-1.68-2.8-2.84-4.32-3.48-1.44-.72-3.36-1.08-5.76-1.08v28.08c0 2.4.2 4.2.6 5.4.48 1.12 1.36 1.88 2.64 2.28 1.28.4 3.28.6 6 .6.24 0 .36.24.36.72s-.12.72-.36.72c-2.8 0-5.04-.04-6.72-.12l-9.96-.12-8.76.12c-1.6.08-3.76.12-6.48.12-.24 0-.36-.24-.36-.72s.12-.72.36-.72c2.72 0 4.72-.2 6-.6 1.28-.4 2.16-1.16 2.64-2.28.48-1.2.72-3 .72-5.4V27.72c0-2.4-.24-4.16-.72-5.28s-1.36-1.88-2.64-2.28c-1.2-.48-3.16-.72-5.88-.72-.24 0-.36-.24-.36-.72s.12-.72.36-.72l6.36.12c3.68.16 6.6.24 8.76.24 2.72 0 6.08-.08 10.08-.24l6.6-.12c.24 0 .36.24.36.72s-.12.72-.36.72c-2.64 0-4.6.24-5.88.72-1.28.48-2.16 1.32-2.64 2.52-.48 1.12-.72 2.88-.72 5.28v25.2c2.16-.08 4.88-.12 8.16-.12l12.6-17.28c3.28-4.56 4.92-8.36 4.92-11.4 0-1.52-.44-2.72-1.32-3.6-.88-.88-2.08-1.32-3.6-1.32-.16 0-.24-.24-.24-.72s.08-.72.24-.72l5.52.12c3.52.16 6.64.24 9.36.24 3.12 0 6.36-.08 9.72-.24l5.16-.12c.24 0 .36.24.36.72s-.12.72-.36.72c-3.52 0-7.48 1.28-11.88 3.84-4.4 2.56-8.12 5.76-11.16 9.6l-16.32 20.28c3.12.16 5.68.76 7.68 1.8 2 .96 3.96 2.52 5.88 4.68 2 2.16 4.8 5.76 8.4 10.8l2.16 3c3.36 4.64 5.96 8.12 7.8 10.44 1.92 2.32 3.88 4.16 5.88 5.52 2 1.36 4.16 2.08 6.48 2.16zm86.879 0c.24 0 .36.24.36.72s-.12.72-.36.72c-2.8 0-5.04-.04-6.72-.12l-9.24-.12-10.8.12c-1.44.08-3.4.12-5.88.12-.24 0-.36-.24-.36-.72s.12-.72.36-.72c2.96 0 5.12-.2 6.48-.6 1.36-.4 2.28-1.16 2.76-2.28.48-1.12.72-2.92.72-5.4V34.2l-48 60.12c-.24.24-.84.36-1.8.36-1.52 0-2.28-.28-2.28-.84V27.72c0-2.4-.24-4.16-.72-5.28s-1.36-1.88-2.64-2.28c-1.28-.48-3.28-.72-6-.72-.24 0-.36-.24-.36-.72s.12-.72.36-.72l6.72.12c4 .16 7.08.24 9.24.24 3.2 0 6.8-.08 10.8-.24l5.88-.12c.24 0 .36.24.36.72s-.12.72-.36.72c-2.96 0-5.12.24-6.48.72-1.36.4-2.28 1.16-2.76 2.28-.48 1.12-.72 2.88-.72 5.28v49.56l48-60.12c.24-.24.84-.36 1.8-.36.56 0 1.08.08 1.56.24.48.16.72.36.72.6v65.64c0 2.4.24 4.2.72 5.4.48 1.12 1.36 1.88 2.64 2.28 1.28.4 3.28.6 6 .6zM110.268 1c.77-1.333 2.694-1.333 3.464 0l3.464 6c.77 1.333-.192 3-1.732 3h-6.928c-1.54 0-2.502-1.667-1.732-3l3.464-6zm24 0c.77-1.333 2.694-1.333 3.464 0l3.464 6c.77 1.333-.192 3-1.732 3h-6.928c-1.54 0-2.502-1.667-1.732-3l3.464-6z" fill="#195557"/></svg>